# Blender 5.0.1
# www.blender.org
mtllib im_footpad.mtl
o landing_gear_footpad_bowl_comp_20250909
v -0.023296 -0.000000 0.086931
v -0.023296 0.000000 -0.086931
v 0.000000 0.000000 -0.090000
v 0.000000 0.012501 -0.174597
v 0.000000 -0.000000 0.090000
v 0.010019 0.000000 -0.027798
v 0.023296 0.000000 -0.086931
v 0.045189 0.012501 -0.168648
v -0.038129 0.000000 -0.000000
v -0.044994 0.000000 -0.077945
v -0.045189 0.012501 -0.168648
v -0.026069 -0.000000 0.000000
v -0.037319 0.000000 -0.003014
v -0.035114 0.000000 -0.005222
v -0.032099 0.000000 -0.006028
v -0.029084 0.000000 -0.005222
v -0.026878 0.000000 -0.003014
v -0.063643 -0.000000 0.063634
v -0.063643 0.000000 -0.063634
v -0.087299 0.012501 -0.151206
v -0.044994 -0.000000 0.077945
v -0.077939 -0.000000 0.045004
v -0.077939 0.000000 -0.045004
v -0.123459 0.012501 -0.123459
v -0.086934 -0.000000 0.023290
v -0.086934 0.000000 -0.023290
v -0.151206 0.012501 -0.087299
v -0.089998 0.000000 -0.000000
v -0.168648 0.012501 -0.045189
v -0.174597 0.012501 0.000000
v -0.168648 0.012501 0.045189
v -0.151206 0.012501 0.087299
v -0.123459 0.012501 0.123459
v -0.087299 0.012501 0.151206
v -0.037319 -0.000000 0.003014
v -0.026878 -0.000000 0.003014
v -0.029084 -0.000000 0.005222
v -0.032099 -0.000000 0.006028
v -0.035114 -0.000000 0.005222
v -0.045189 0.012501 0.168648
v 0.021270 -0.000000 0.030812
v 0.023296 -0.000000 0.086931
v -0.000000 0.012501 0.174597
v 0.010829 -0.000000 0.030812
v 0.010019 -0.000000 0.027798
v 0.019064 -0.000000 0.033021
v 0.016049 -0.000000 0.033826
v 0.013034 -0.000000 0.033021
v 0.044994 0.000000 -0.077945
v 0.044994 -0.000000 0.077945
v 0.045189 0.012501 0.168648
v 0.022079 -0.000000 0.027798
v 0.063643 0.000000 -0.063634
v 0.063643 -0.000000 0.063634
v 0.087299 0.012501 0.151206
v 0.077939 0.000000 -0.045004
v 0.077939 -0.000000 0.045004
v 0.123459 0.012501 0.123459
v 0.086934 0.000000 -0.023290
v 0.086934 -0.000000 0.023290
v 0.151206 0.012501 0.087299
v 0.089998 0.000000 -0.000000
v 0.168648 0.012501 0.045189
v 0.174597 0.012501 0.000000
v 0.168648 0.012501 -0.045189
v 0.151206 0.012501 -0.087299
v 0.123459 0.012501 -0.123459
v 0.087299 0.012501 -0.151206
v 0.022079 0.000000 -0.027798
v 0.010829 0.000000 -0.030812
v 0.013034 0.000000 -0.033021
v 0.016049 0.000000 -0.033826
v 0.019064 0.000000 -0.033021
v 0.021270 0.000000 -0.030812
v 0.010829 0.000000 -0.024784
v 0.010829 -0.000000 0.024784
v 0.010019 0.001200 0.027798
v 0.010829 0.001200 0.030812
v 0.013034 0.000000 -0.022576
v 0.013034 -0.000000 0.022576
v 0.010829 0.001200 0.024784
v 0.016049 0.000000 -0.021770
v 0.016049 -0.000000 0.021770
v 0.013034 0.001200 0.022576
v 0.019064 0.000000 -0.022576
v 0.019064 -0.000000 0.022576
v 0.016049 0.001200 0.021770
v 0.021270 0.000000 -0.024784
v 0.021270 -0.000000 0.024784
v 0.019064 0.001200 0.022576
v 0.021270 0.001200 0.024784
v 0.022079 0.001200 0.027798
v 0.021270 0.001200 0.030812
v 0.019064 0.001200 0.033021
v 0.016049 0.001200 0.033826
v 0.013034 0.001200 0.033021
v 0.010019 0.001200 -0.027798
v 0.010829 0.001200 -0.024784
v 0.010829 0.001200 -0.030812
v 0.013034 0.001200 -0.033021
v 0.016049 0.001200 -0.033826
v 0.019064 0.001200 -0.033021
v 0.021270 0.001200 -0.030812
v 0.022079 0.001200 -0.027798
v 0.021270 0.001200 -0.024784
v 0.019064 0.001200 -0.022576
v 0.016049 0.001200 -0.021770
v 0.013034 0.001200 -0.022576
v -0.038129 0.001200 0.000000
v -0.037319 0.001200 0.003014
v -0.037319 0.001200 -0.003014
v -0.035114 0.001200 -0.005222
v -0.032099 0.001200 -0.006028
v -0.029084 0.001200 -0.005222
v -0.026878 0.001200 -0.003014
v -0.026069 0.001200 0.000000
v -0.026878 0.001200 0.003014
v -0.029084 0.001200 0.005222
v -0.032099 0.001200 0.006028
v -0.035114 0.001200 0.005222
v -0.000000 0.049078 0.252178
v -0.065269 0.049078 0.243585
v 0.065269 0.049078 0.243585
v 0.126089 0.049078 0.218393
v 0.178317 0.049078 0.178317
v 0.218393 0.049078 0.126089
v 0.243585 0.049078 0.065269
v 0.252178 0.049078 0.000000
v 0.243585 0.049078 -0.065269
v 0.218393 0.049078 -0.126089
v 0.178317 0.049078 -0.178317
v 0.126089 0.049078 -0.218393
v 0.065269 0.049078 -0.243585
v 0.000000 0.049078 -0.252178
v 0.081739 0.106585 -0.305053
v 0.000000 0.106585 -0.315814
v -0.065269 0.049078 -0.243585
v -0.000000 0.106585 0.315814
v -0.081739 0.106585 0.305053
v 0.081739 0.106585 0.305053
v 0.157907 0.106585 0.273503
v 0.223314 0.106585 0.223314
v 0.273503 0.106585 0.157907
v 0.305053 0.106585 0.081739
v 0.315814 0.106585 0.000000
v 0.305053 0.106585 -0.081739
v 0.273503 0.106585 -0.157907
v 0.223314 0.106585 -0.223314
v 0.157907 0.106585 -0.273503
v 0.093177 0.180000 -0.347732
v 0.000000 0.180000 -0.360000
v -0.081739 0.106585 -0.305053
v 0.000000 0.180000 0.360000
v -0.093177 0.180000 0.347732
v 0.093177 0.180000 0.347732
v 0.179995 0.180000 0.311772
v 0.254562 0.180000 0.254554
v 0.311766 0.180000 0.180004
v 0.347734 0.180000 0.093171
v 0.359999 0.180000 0.000000
v 0.347734 0.180000 -0.093171
v 0.311766 0.180000 -0.180004
v 0.254562 0.180000 -0.254554
v 0.179995 0.180000 -0.311772
v 0.092569 0.180000 -0.345410
v 0.000000 0.180000 -0.357600
v -0.093177 0.180000 -0.347732
v 0.000000 0.180000 0.357600
v -0.092569 0.180000 0.345410
v 0.178810 0.180000 0.309682
v 0.092569 0.180000 0.345410
v 0.252859 0.180000 0.252859
v 0.309682 0.180000 0.178810
v 0.345410 0.180000 0.092569
v 0.357600 0.180000 0.000000
v 0.345410 0.180000 -0.092569
v 0.309682 0.180000 -0.178810
v 0.252859 0.180000 -0.252859
v 0.178810 0.180000 -0.309682
v -0.092569 0.180000 -0.345410
v 0.000000 0.172707 -0.354367
v 0.008224 0.165544 -0.350858
v 0.007559 0.165538 -0.350870
v 0.006895 0.165532 -0.350881
v 0.003448 0.165512 -0.350922
v -0.178810 0.180000 -0.309682
v -0.085010 0.107481 -0.301422
v 0.000000 0.165506 -0.350936
v -0.003448 0.165512 -0.350922
v -0.006895 0.165532 -0.350881
v -0.007559 0.165538 -0.350870
v -0.008224 0.165544 -0.350858
v -0.008152 0.107414 -0.313018
v -0.179995 0.180000 -0.311772
v -0.252859 0.180000 -0.252859
v -0.156590 0.107481 -0.271222
v -0.254562 0.180000 -0.254554
v -0.309682 0.180000 -0.178810
v -0.299740 0.165544 -0.182551
v -0.218534 0.107481 -0.224331
v -0.267006 0.107414 -0.163568
v -0.311766 0.180000 -0.180004
v -0.345410 0.180000 -0.092569
v -0.303919 0.165506 -0.175468
v -0.300083 0.165538 -0.181982
v -0.300424 0.165532 -0.181412
v -0.347734 0.180000 -0.093171
v -0.357600 0.180000 0.000000
v -0.303544 0.107481 -0.077090
v -0.307319 0.165532 -0.169469
v -0.307642 0.165538 -0.168888
v -0.307964 0.165544 -0.168307
v -0.275157 0.107414 -0.149450
v -0.347734 0.180000 0.093171
v -0.345410 0.180000 0.092569
v -0.313180 0.107481 0.000000
v -0.359999 0.180000 0.000000
v -0.311766 0.180000 0.180004
v -0.309682 0.180000 0.178810
v -0.307964 0.165544 0.168307
v -0.303544 0.107481 0.077090
v -0.275157 0.107414 0.149450
v -0.254562 0.180000 0.254554
v -0.252859 0.180000 0.252859
v -0.303919 0.165506 0.175468
v -0.307642 0.165538 0.168888
v -0.307319 0.165532 0.169469
v -0.179995 0.180000 0.311772
v -0.178810 0.180000 0.309682
v -0.218534 0.107481 0.224331
v -0.267006 0.107414 0.163568
v -0.299740 0.165544 0.182551
v -0.300424 0.165532 0.181412
v -0.300083 0.165538 0.181982
v -0.156590 0.107481 0.271222
v -0.008224 0.165544 0.350858
v -0.085010 0.107481 0.301422
v -0.008152 0.107414 0.313018
v -0.000000 0.172707 0.354367
v -0.003448 0.165512 0.350922
v -0.007559 0.165538 0.350870
v -0.006895 0.165532 0.350881
v 0.085010 0.107481 0.301422
v -0.000000 0.165506 0.350936
v 0.003448 0.165512 0.350922
v 0.006895 0.165532 0.350881
v 0.007559 0.165538 0.350870
v 0.008224 0.165544 0.350858
v 0.008152 0.107414 0.313018
v 0.156590 0.107481 0.271222
v 0.299740 0.165544 0.182551
v 0.218534 0.107481 0.224331
v 0.267006 0.107414 0.163568
v 0.303919 0.165506 0.175468
v 0.300083 0.165538 0.181982
v 0.300424 0.165532 0.181412
v 0.303544 0.107481 0.077090
v 0.275157 0.107414 0.149450
v 0.307964 0.165544 0.168307
v 0.307319 0.165532 0.169469
v 0.307642 0.165538 0.168888
v 0.313180 0.107481 0.000000
v 0.307964 0.165544 -0.168307
v 0.303544 0.107481 -0.077090
v 0.275157 0.107414 -0.149450
v 0.303919 0.165506 -0.175468
v 0.307642 0.165538 -0.168888
v 0.307319 0.165532 -0.169469
v 0.218534 0.107481 -0.224331
v 0.300424 0.165532 -0.181412
v 0.300083 0.165538 -0.181982
v 0.299740 0.165544 -0.182551
v 0.267006 0.107414 -0.163568
v 0.156590 0.107481 -0.271222
v 0.085010 0.107481 -0.301422
v 0.008152 0.107414 -0.313018
v -0.157907 0.106585 0.273503
v -0.223314 0.106585 0.223314
v -0.273503 0.106585 0.157907
v -0.305053 0.106585 0.081739
v -0.315814 0.106585 0.000000
v -0.305053 0.106585 -0.081739
v -0.273503 0.106585 -0.157907
v -0.223314 0.106585 -0.223314
v -0.157907 0.106585 -0.273503
v -0.000000 0.001200 0.074857
v 0.000000 0.001200 -0.074857
v 0.037433 0.001200 0.064822
v 0.037433 0.001200 -0.064822
v -0.037433 0.001200 0.064822
v -0.037433 0.001200 -0.064822
v -0.064822 0.001200 -0.037433
v 0.000000 0.002400 -0.073613
v -0.036805 0.002400 -0.063747
v 0.064822 0.001200 0.037433
v 0.064822 0.001200 -0.037433
v 0.036805 0.002400 -0.063747
v 0.074857 0.001200 0.000000
v 0.063750 0.002400 -0.036806
v 0.073609 0.002400 0.000000
v 0.063750 0.002400 0.036806
v 0.036805 0.002400 0.063747
v 0.000000 0.002400 0.073613
v -0.064822 0.001200 0.037433
v -0.036805 0.002400 0.063747
v -0.074857 0.001200 0.000000
v -0.063750 0.002400 0.036806
v -0.073609 0.002400 0.000000
v -0.063750 0.002400 -0.036806
v -0.126089 0.049078 -0.218393
v -0.178317 0.049078 -0.178317
v -0.218393 0.049078 -0.126089
v -0.243585 0.049078 -0.065269
v -0.252178 0.049078 0.000000
v -0.243585 0.049078 0.065269
v -0.218393 0.049078 0.126089
v -0.178317 0.049078 0.178317
v -0.126089 0.049078 0.218393
v 0.000000 0.002400 -0.088613
v -0.022922 0.002400 -0.085594
v 0.044304 0.002400 -0.076737
v 0.022922 0.002400 -0.085594
v 0.062666 0.002400 -0.062648
v 0.076741 0.002400 0.044306
v 0.076741 0.002400 -0.044306
v 0.062666 0.002400 0.062648
v 0.022922 0.002400 0.085594
v 0.044304 0.002400 0.076737
v 0.000000 0.002400 0.088613
v 0.073554 0.002402 -0.051207
v 0.073889 0.002402 -0.050626
v 0.075093 0.009900 -0.048541
v 0.073218 0.002402 -0.051788
v 0.119043 0.014714 -0.124961
v 0.121946 0.008036 -0.079832
v 0.142731 0.020859 -0.087593
v 0.077339 0.002401 -0.044651
v 0.073589 0.001200 -0.051147
v 0.143301 0.012494 -0.091395
v 0.075464 0.008700 -0.047899
v 0.085588 0.002400 -0.022946
v 0.080788 0.002402 -0.038677
v 0.081124 0.002402 -0.038096
v 0.079585 0.009900 -0.040762
v 0.081089 0.001200 -0.038156
v 0.147138 0.019705 -0.080620
v 0.079214 0.008700 -0.041404
v 0.081459 0.002402 -0.037515
v 0.153405 0.014726 -0.079169
v 0.130110 0.008036 -0.065692
v 0.147223 0.020859 -0.079813
v 0.167741 0.014714 -0.040614
v 0.242216 0.050758 -0.060698
v 0.220169 0.050739 -0.117745
v 0.176345 0.024070 -0.092431
v 0.088609 0.002400 0.000000
v 0.172587 0.014714 0.000000
v 0.085588 0.002400 0.022946
v 0.167741 0.014714 0.040614
v 0.249706 0.050758 0.000000
v 0.130110 0.008036 0.065692
v 0.153405 0.014726 0.079169
v 0.242216 0.050758 0.060698
v 0.081459 0.002402 0.037515
v 0.147223 0.020859 0.079813
v 0.176344 0.024070 0.092431
v 0.209638 0.052888 0.115848
v 0.081124 0.002402 0.038096
v 0.080788 0.002402 0.038677
v 0.079585 0.009900 0.040762
v 0.077339 0.002401 0.044652
v 0.081089 0.001200 0.038156
v 0.150801 0.012494 0.078405
v 0.079214 0.008700 0.041404
v 0.073889 0.002402 0.050626
v 0.073554 0.002402 0.051207
v 0.075093 0.009900 0.048541
v 0.073589 0.001200 0.051147
v 0.143388 0.019705 0.087115
v 0.075464 0.008700 0.047899
v 0.073218 0.002402 0.051788
v 0.145264 0.014726 0.093268
v 0.121946 0.008036 0.079832
v 0.142731 0.020859 0.087593
v 0.119043 0.014714 0.124961
v 0.173674 0.050758 0.179416
v 0.212054 0.050739 0.131799
v 0.168220 0.024070 0.106503
v 0.086294 0.014714 0.149465
v 0.048697 0.014714 0.165575
v 0.124853 0.050758 0.216252
v 0.008164 0.008036 0.145524
v 0.008140 0.014726 0.172437
v 0.068542 0.050758 0.240115
v 0.008241 0.002402 0.089303
v 0.004492 0.020858 0.167405
v 0.008124 0.024070 0.198934
v 0.004492 0.052888 0.239476
v 0.007570 0.002402 0.089303
v 0.006899 0.002402 0.089303
v 0.004492 0.009900 0.089303
v 0.003451 0.002401 0.089303
v 0.007500 0.001200 0.089303
v 0.007500 0.012494 0.169800
v 0.003750 0.008700 0.089303
v -0.000000 0.002400 0.088958
v -0.000000 0.002401 0.089303
v -0.022922 0.002400 0.085594
v -0.003451 0.002401 0.089303
v 0.086294 0.014714 -0.149465
v 0.048697 0.014714 -0.165575
v 0.000000 0.002400 -0.088958
v 0.000000 0.002401 -0.089303
v 0.003451 0.002401 -0.089303
v 0.006899 0.002402 -0.089303
v 0.007570 0.002402 -0.089303
v 0.008241 0.002402 -0.089303
v 0.008140 0.014726 -0.172437
v -0.003451 0.002401 -0.089303
v -0.008241 0.002402 -0.089303
v -0.007570 0.002402 -0.089303
v -0.006899 0.002402 -0.089303
v -0.007500 0.001200 -0.089303
v 0.004492 0.009900 -0.089303
v 0.007500 0.001200 -0.089303
v 0.003750 0.019705 -0.167736
v 0.003750 0.008700 -0.089303
v 0.008164 0.008036 -0.145525
v 0.004492 0.020859 -0.167405
v 0.068542 0.050758 -0.240115
v 0.008114 0.050739 -0.249544
v 0.008124 0.024070 -0.198935
v 0.124853 0.050758 -0.216252
v 0.145264 0.014726 -0.093268
v 0.173674 0.050758 -0.179416
v 0.168220 0.024070 -0.106503
v 0.205146 0.052888 -0.123628
v 0.209638 0.052888 -0.115848
v 0.220600 0.051068 -0.117994
v 0.220169 0.050739 0.117745
v 0.220600 0.051067 0.117994
v 0.262009 0.103514 0.146085
v 0.269025 0.099254 -0.145918
v 0.262009 0.103514 -0.146085
v 0.269025 0.099254 0.145918
v 0.300293 0.168828 0.168188
v 0.300293 0.168828 -0.168188
v 0.308563 0.165000 -0.169489
v 0.269106 0.097684 -0.146708
v 0.300855 0.168300 -0.169369
v 0.295801 0.168828 -0.175967
v 0.301063 0.165000 -0.182479
v 0.258660 0.102710 -0.153668
v 0.297105 0.168300 -0.175864
v 0.260881 0.099254 -0.160023
v 0.212485 0.051067 -0.132048
v 0.212054 0.050739 -0.131799
v 0.004492 0.103514 -0.299949
v 0.008114 0.051068 -0.250042
v 0.008143 0.099254 -0.305941
v 0.004492 0.168828 -0.344155
v 0.007500 0.165000 -0.351967
v 0.007500 0.097684 -0.306407
v 0.003750 0.168300 -0.345232
v -0.007500 0.165000 0.351967
v 0.004492 0.168828 0.344155
v 0.007500 0.165000 0.351967
v 0.003750 0.102710 0.300840
v 0.003750 0.168300 0.345232
v 0.008143 0.099254 0.305941
v 0.008114 0.050739 0.249544
v 0.008114 0.051067 0.250042
v 0.257518 0.103514 0.153864
v 0.212486 0.051068 0.132048
v 0.260881 0.099254 0.160023
v 0.295801 0.168828 0.175967
v 0.301063 0.165000 0.182479
v 0.261606 0.097684 0.159699
v 0.297105 0.168300 0.175864
v 0.308563 0.165000 0.169489
v 0.262410 0.102710 0.147172
v 0.300855 0.168300 0.169369
v 0.257518 0.103514 -0.153864
v 0.004492 0.052888 -0.239476
v 0.205146 0.052888 0.123628
v 0.004492 0.103514 0.299949
v -0.062666 0.002400 -0.062648
v -0.044304 0.002400 -0.076737
v -0.076741 0.002400 -0.044306
v -0.062666 0.002400 0.062648
v -0.076741 0.002400 0.044306
v -0.044304 0.002400 0.076737
v -0.048697 0.014714 0.165575
v -0.007570 0.002402 0.089303
v -0.006899 0.002402 0.089303
v -0.008241 0.002402 0.089303
v -0.008140 0.014726 0.172437
v -0.086294 0.014714 0.149465
v -0.073218 0.002402 0.051788
v -0.119043 0.014714 0.124961
v -0.085588 0.002400 -0.022946
v -0.085588 0.002400 0.022946
v -0.077339 0.002401 0.044651
v -0.073554 0.002402 0.051207
v -0.073889 0.002402 0.050626
v -0.088609 0.002400 0.000000
v -0.167741 0.014714 0.040614
v -0.080788 0.002402 0.038677
v -0.081124 0.002402 0.038096
v -0.081459 0.002402 0.037515
v -0.153405 0.014726 0.079169
v -0.172587 0.014714 0.000000
v -0.081459 0.002402 -0.037515
v -0.167741 0.014714 -0.040614
v -0.077339 0.002401 -0.044652
v -0.081124 0.002402 -0.038096
v -0.080788 0.002402 -0.038677
v -0.119043 0.014714 -0.124961
v -0.073889 0.002402 -0.050626
v -0.073554 0.002402 -0.051207
v -0.073218 0.002402 -0.051788
v -0.145264 0.014726 -0.093268
v -0.086294 0.014714 -0.149465
v -0.048697 0.014714 -0.165575
v -0.004492 0.009900 0.089303
v -0.007500 0.001200 0.089303
v -0.003750 0.019705 0.167736
v -0.003750 0.008700 0.089303
v -0.008164 0.008036 0.145525
v -0.004492 0.020858 0.167405
v -0.068542 0.050758 0.240115
v -0.008114 0.050739 0.249544
v -0.008124 0.024070 0.198935
v -0.124853 0.050758 0.216252
v -0.121946 0.008036 0.079832
v -0.145264 0.014726 0.093268
v -0.173674 0.050758 0.179416
v -0.142731 0.020859 0.087593
v -0.168220 0.024070 0.106503
v -0.205146 0.052888 0.123628
v -0.075093 0.009900 0.048541
v -0.073589 0.001200 0.051147
v -0.143301 0.012494 0.091395
v -0.075464 0.008700 0.047899
v -0.079585 0.009900 0.040762
v -0.081089 0.001200 0.038156
v -0.147138 0.019705 0.080620
v -0.079214 0.008700 0.041404
v -0.130110 0.008036 0.065692
v -0.147223 0.020859 0.079813
v -0.242216 0.050758 0.060698
v -0.220169 0.050739 0.117745
v -0.176345 0.024070 0.092431
v -0.249706 0.050758 -0.000000
v -0.130110 0.008036 -0.065692
v -0.153405 0.014726 -0.079169
v -0.242216 0.050758 -0.060698
v -0.147223 0.020859 -0.079813
v -0.176344 0.024070 -0.092431
v -0.209638 0.052888 -0.115848
v -0.079585 0.009900 -0.040762
v -0.081089 0.001200 -0.038156
v -0.150801 0.012494 -0.078405
v -0.079214 0.008700 -0.041404
v -0.075093 0.009900 -0.048541
v -0.073589 0.001200 -0.051147
v -0.143388 0.019705 -0.087115
v -0.075464 0.008700 -0.047899
v -0.121946 0.008036 -0.079832
v -0.142731 0.020859 -0.087593
v -0.173674 0.050758 -0.179416
v -0.212054 0.050739 -0.131799
v -0.168220 0.024070 -0.106503
v -0.124853 0.050758 -0.216252
v -0.008164 0.008036 -0.145524
v -0.008140 0.014726 -0.172437
v -0.068542 0.050758 -0.240115
v -0.004492 0.020859 -0.167405
v -0.008124 0.024070 -0.198934
v -0.004492 0.052888 -0.239476
v -0.004492 0.009900 -0.089303
v -0.007500 0.012494 -0.169800
v -0.003750 0.008700 -0.089303
v -0.004492 0.052888 0.239476
v -0.008114 0.051068 0.250042
v -0.212054 0.050739 0.131799
v -0.212485 0.051067 0.132048
v -0.257518 0.103514 0.153864
v -0.008143 0.099254 0.305941
v -0.004492 0.103514 0.299949
v -0.260881 0.099254 0.160023
v -0.295801 0.168828 0.175967
v -0.004492 0.168828 0.344155
v -0.007500 0.097684 0.306407
v -0.003750 0.168300 0.345232
v -0.004492 0.168828 -0.344155
v -0.007500 0.165000 -0.351967
v -0.003750 0.102710 -0.300840
v -0.003750 0.168300 -0.345232
v -0.008143 0.099254 -0.305941
v -0.008114 0.051067 -0.250042
v -0.008114 0.050739 -0.249544
v -0.257518 0.103514 -0.153864
v -0.212486 0.051068 -0.132048
v -0.260881 0.099254 -0.160023
v -0.295801 0.168828 -0.175967
v -0.301063 0.165000 -0.182479
v -0.261606 0.097684 -0.159699
v -0.297105 0.168300 -0.175864
v -0.300293 0.168828 -0.168188
v -0.308563 0.165000 -0.169489
v -0.262410 0.102710 -0.147172
v -0.300855 0.168300 -0.169369
v -0.269025 0.099254 -0.145918
v -0.220169 0.050739 -0.117745
v -0.220600 0.051067 -0.117994
v -0.262009 0.103514 0.146085
v -0.220600 0.051068 0.117994
v -0.269025 0.099254 0.145918
v -0.300293 0.168828 0.168188
v -0.308563 0.165000 0.169489
v -0.269106 0.097684 0.146708
v -0.300855 0.168300 0.169369
v -0.301063 0.165000 0.182479
v -0.258660 0.102710 0.153668
v -0.297105 0.168300 0.175864
v -0.004492 0.103514 -0.299949
v -0.205146 0.052888 -0.123628
v -0.209638 0.052888 0.115848
v -0.262009 0.103514 -0.146085
v 0.007500 0.012494 -0.169800
v -0.007500 0.097684 -0.306407
v 0.007500 0.045506 -0.244080
v -0.007500 0.045506 -0.244080
v -0.003750 0.019705 -0.167736
v -0.003750 0.051869 -0.240111
v 0.003750 0.102710 -0.300840
v 0.003750 0.051869 -0.240111
v 0.150801 0.012494 -0.078405
v 0.261606 0.097684 -0.159699
v 0.215129 0.045506 -0.115545
v 0.207629 0.045506 -0.128535
v 0.143388 0.019705 -0.087115
v 0.206067 0.051869 -0.123303
v 0.262410 0.102710 -0.147172
v 0.209817 0.051869 -0.116808
v 0.143301 0.012494 0.091395
v 0.269106 0.097684 0.146708
v 0.207629 0.045506 0.128535
v 0.215129 0.045506 0.115545
v 0.147138 0.019705 0.080620
v 0.209817 0.051869 0.116808
v 0.258660 0.102710 0.153668
v 0.206067 0.051869 0.123303
v -0.007500 0.012494 0.169800
v 0.007500 0.097684 0.306407
v -0.007500 0.045506 0.244080
v 0.007500 0.045506 0.244080
v 0.003750 0.019705 0.167736
v 0.003750 0.051869 0.240111
v -0.003750 0.102710 0.300840
v -0.003750 0.051869 0.240111
v -0.150801 0.012494 0.078405
v -0.261606 0.097684 0.159699
v -0.215129 0.045506 0.115545
v -0.207629 0.045506 0.128535
v -0.143388 0.019705 0.087115
v -0.206067 0.051869 0.123303
v -0.262410 0.102710 0.147172
v -0.209817 0.051869 0.116808
v -0.143301 0.012494 -0.091395
v -0.269106 0.097684 -0.146708
v -0.207629 0.045506 -0.128535
v -0.215129 0.045506 -0.115545
v -0.147138 0.019705 -0.080620
v -0.209817 0.051869 -0.116808
v -0.258660 0.102710 -0.153668
v -0.206067 0.051869 -0.123303
v -0.037427 0.001200 -0.064825
v 0.000000 0.001200 -0.074857
v 0.000000 0.030000 -0.045000
v 0.000000 0.001200 0.074857
v -0.037427 0.001200 0.064825
v 0.037427 0.001200 -0.064825
v 0.013896 0.030000 -0.042798
v -0.064828 0.001200 0.037428
v -0.064828 0.001200 -0.037428
v -0.026453 0.030000 -0.036400
v -0.013896 0.030000 -0.042798
v -0.074853 0.001200 0.000000
v -0.042793 0.030000 -0.013915
v -0.036410 0.030000 -0.026444
v -0.044996 0.030000 0.000000
v -0.036410 0.030000 0.026444
v -0.042793 0.030000 0.013915
v -0.013896 0.030000 0.042798
v -0.026453 0.030000 0.036400
v 0.037427 0.001200 0.064825
v 0.000000 0.030000 0.045000
v 0.064828 0.001200 -0.037428
v 0.064828 0.001200 0.037428
v 0.026453 0.030000 0.036400
v 0.013896 0.030000 0.042798
v 0.074853 0.001200 0.000000
v 0.042793 0.030000 0.013915
v 0.036410 0.030000 0.026444
v 0.044996 0.030000 0.000000
v 0.036410 0.030000 -0.026444
v 0.042793 0.030000 -0.013915
v 0.026453 0.030000 -0.036400
v 0.010019 0.030000 0.027798
v 0.010829 0.030000 0.030812
v 0.010829 0.030000 0.024784
v 0.013034 0.030000 0.022576
v 0.016049 0.030000 0.021770
v 0.019064 0.030000 0.022576
v 0.021270 0.030000 0.024784
v 0.022079 0.030000 0.027798
v 0.021270 0.030000 0.030812
v 0.019064 0.030000 0.033021
v 0.016049 0.030000 0.033826
v 0.013034 0.030000 0.033021
v 0.010019 0.030000 -0.027798
v 0.010829 0.030000 -0.024784
v 0.010829 0.030000 -0.030812
v 0.013034 0.030000 -0.033021
v 0.016049 0.030000 -0.033826
v 0.019064 0.030000 -0.033021
v 0.021270 0.030000 -0.030812
v 0.022079 0.030000 -0.027798
v 0.021270 0.030000 -0.024784
v 0.019064 0.030000 -0.022576
v 0.016049 0.030000 -0.021770
v 0.013034 0.030000 -0.022576
v -0.038129 0.030000 0.000000
v -0.037319 0.030000 0.003014
v -0.037319 0.030000 -0.003014
v -0.035114 0.030000 -0.005222
v -0.032099 0.030000 -0.006028
v -0.029084 0.030000 -0.005222
v -0.026878 0.030000 -0.003014
v -0.026069 0.030000 0.000000
v -0.026878 0.030000 0.003014
v -0.029084 0.030000 0.005222
v -0.032099 0.030000 0.006028
v -0.035114 0.030000 0.005222
v -0.000000 0.030000 0.019198
v -0.013579 0.030000 0.013569
v -0.007342 0.030000 0.017736
v 0.007342 0.030000 0.017736
v 0.000000 0.030000 -0.019198
v 0.007342 0.030000 -0.017736
v -0.017733 0.030000 0.007352
v -0.019195 0.030000 0.000000
v -0.017733 0.030000 -0.007352
v -0.007342 0.030000 -0.017736
v -0.013579 0.030000 -0.013569
v 0.000000 0.020401 -0.016626
v 0.008313 0.020401 -0.014398
v -0.008313 0.020401 -0.014398
v -0.014398 0.020401 -0.008313
v -0.016626 0.020401 0.000000
v -0.014398 0.020401 0.008313
v -0.008313 0.020401 0.014398
v -0.000000 0.020401 0.016626
v 0.013579 0.030000 0.013569
v 0.008313 0.020401 0.014398
v 0.017733 0.030000 0.007352
v 0.014398 0.020401 0.008313
v 0.019195 0.030000 0.000000
v 0.017733 0.030000 -0.007352
v 0.016626 0.020401 0.000000
v 0.013579 0.030000 -0.013569
v 0.014398 0.020401 -0.008313
v -0.000000 0.016425 0.013575
v -0.004795 0.013369 0.008305
v 0.004795 0.013369 0.008305
v -0.000000 0.013369 0.009590
v 0.008305 0.013369 0.004795
v 0.009590 0.013369 0.000000
v 0.008305 0.013369 -0.004795
v 0.004795 0.013369 -0.008305
v 0.000000 0.016425 -0.013575
v 0.000000 0.013369 -0.009590
v 0.000000 0.010802 0.000000
v -0.004795 0.013369 -0.008305
v -0.008305 0.013369 0.004795
v -0.009590 0.013369 0.000000
v -0.008305 0.013369 -0.004795
vn -0.0000 -1.0000 -0.0000
vn -0.0193 -0.9891 -0.1462
vn 0.0193 -0.9891 -0.1461
vn 0.0192 -0.9891 -0.1462
vn -0.0564 -0.9891 -0.1362
vn -0.0192 -0.9891 -0.1462
vn -0.0897 -0.9891 -0.1169
vn -0.1170 -0.9891 -0.0897
vn -0.1362 -0.9891 -0.0564
vn -0.1462 -0.9891 -0.0192
vn -0.1462 -0.9891 0.0192
vn -0.1362 -0.9891 0.0564
vn -0.1170 -0.9891 0.0897
vn -0.0897 -0.9891 0.1169
vn -0.0564 -0.9891 0.1362
vn -0.0897 -0.9891 0.1170
vn -0.0193 -0.9891 0.1461
vn 0.0193 -0.9891 0.1462
vn -0.0192 -0.9891 0.1462
vn 0.0564 -0.9891 0.1362
vn 0.0192 -0.9891 0.1462
vn 0.0897 -0.9891 0.1169
vn 0.1170 -0.9891 0.0897
vn 0.1362 -0.9891 0.0564
vn 0.1462 -0.9891 0.0192
vn 0.1462 -0.9891 -0.0192
vn 0.1362 -0.9891 -0.0564
vn 0.1170 -0.9891 -0.0897
vn 0.0897 -0.9891 -0.1169
vn 0.0564 -0.9891 -0.1362
vn 0.0897 -0.9891 -0.1170
vn 0.9658 -0.0000 0.2594
vn 0.9658 -0.0000 -0.2594
vn 0.7076 -0.0000 0.7067
vn 0.2582 -0.0000 0.9661
vn -0.2582 -0.0000 0.9661
vn -0.7076 -0.0000 0.7067
vn -0.9658 -0.0000 0.2594
vn -0.9658 -0.0000 -0.2594
vn -0.7076 -0.0000 -0.7067
vn -0.2582 -0.0000 -0.9661
vn 0.2582 -0.0000 -0.9661
vn 0.7076 -0.0000 -0.7067
vn 0.0561 -0.9031 0.4258
vn -0.0561 -0.9031 0.4258
vn 0.1643 -0.9031 0.3968
vn 0.2614 -0.9031 0.3407
vn 0.3407 -0.9031 0.2614
vn 0.3968 -0.9031 0.1643
vn 0.4258 -0.9031 0.0561
vn 0.4258 -0.9031 -0.0561
vn 0.3968 -0.9031 -0.1643
vn 0.3407 -0.9031 -0.2614
vn 0.2614 -0.9031 -0.3407
vn 0.1643 -0.9031 -0.3968
vn 0.0561 -0.9031 -0.4258
vn -0.0561 -0.9031 -0.4258
vn 0.0879 -0.7391 -0.6679
vn -0.0879 -0.7391 -0.6679
vn 0.0879 -0.7391 0.6679
vn -0.0879 -0.7391 0.6679
vn 0.2578 -0.7391 0.6224
vn 0.4101 -0.7391 0.5344
vn 0.5344 -0.7391 0.4101
vn 0.6224 -0.7391 0.2578
vn 0.6679 -0.7391 0.0879
vn 0.6679 -0.7391 -0.0879
vn 0.6224 -0.7391 -0.2578
vn 0.5344 -0.7391 -0.4101
vn 0.4101 -0.7391 -0.5344
vn 0.2578 -0.7391 -0.6224
vn 0.1121 -0.5124 -0.8514
vn -0.1121 -0.5124 -0.8514
vn 0.1121 -0.5124 0.8514
vn -0.1121 -0.5124 0.8514
vn 0.3286 -0.5124 0.7934
vn 0.5228 -0.5124 0.6813
vn 0.6813 -0.5124 0.5228
vn 0.7934 -0.5124 0.3286
vn 0.8514 -0.5124 0.1121
vn 0.8514 -0.5124 -0.1121
vn 0.7934 -0.5124 -0.3286
vn 0.6813 -0.5124 -0.5228
vn 0.5228 -0.5124 -0.6813
vn 0.3286 -0.5124 -0.7934
vn -0.0000 1.0000 -0.0000
vn 0.1195 0.4024 0.9076
vn -0.1217 0.3618 0.9243
vn -0.0201 0.4132 0.9104
vn -0.0185 0.4139 0.9101
vn -0.0132 0.4160 0.9093
vn -0.0673 0.4044 0.9121
vn 0.3282 0.5147 0.7921
vn 0.1204 0.4270 0.8962
vn 0.0031 -0.3391 0.9407
vn 0.0095 -0.3038 0.9527
vn 0.0138 -0.2818 0.9594
vn 0.0149 -0.2751 0.9613
vn 0.1461 0.5398 0.8290
vn 0.1275 0.5241 0.8421
vn 0.5203 0.5191 0.6781
vn 0.3322 0.5194 0.7874
vn 0.7396 0.3618 0.5676
vn 0.5177 0.5141 0.6839
vn 0.6655 0.5241 0.5315
vn 0.6449 0.5398 0.5410
vn 0.8407 0.4146 0.3483
vn 0.7785 0.4130 0.4727
vn 0.7790 0.4138 0.4711
vn 0.7825 0.4176 0.4619
vn 0.8501 0.5146 0.1119
vn 0.8234 -0.3206 0.4682
vn 0.8377 -0.2815 0.4680
vn 0.8402 -0.2744 0.4678
vn 0.7910 0.5398 0.2880
vn 0.7930 0.5241 0.3106
vn 0.8474 0.5191 -0.1116
vn 0.8479 0.5194 0.1060
vn 0.8613 0.3616 -0.3568
vn 0.8511 0.5141 -0.1064
vn 0.7930 0.5241 -0.3106
vn 0.7910 0.5398 -0.2880
vn 0.7219 0.4147 -0.5540
vn 0.7986 0.4130 -0.4378
vn 0.7975 0.4137 -0.4391
vn 0.7913 0.4176 -0.4467
vn 0.5220 0.5146 -0.6802
vn 0.6655 0.5241 -0.5315
vn 0.6449 0.5398 -0.5410
vn 0.8170 -0.3211 -0.4789
vn 0.8240 -0.2818 -0.4915
vn 0.8250 -0.2750 -0.4937
vn 0.3271 0.5190 -0.7897
vn 0.5158 0.5194 -0.6813
vn 0.1217 0.3618 -0.9243
vn 0.1275 0.5241 -0.8421
vn 0.1461 0.5398 -0.8290
vn 0.3334 0.5141 -0.7903
vn -0.1195 0.4024 -0.9076
vn 0.0673 0.4044 -0.9121
vn 0.0201 0.4132 -0.9104
vn 0.0185 0.4139 -0.9101
vn 0.0132 0.4160 -0.9093
vn -0.3282 0.5147 -0.7921
vn -0.1204 0.4270 -0.8962
vn -0.0031 -0.3391 -0.9407
vn -0.0095 -0.3038 -0.9527
vn -0.0138 -0.2818 -0.9594
vn -0.0149 -0.2751 -0.9613
vn -0.1461 0.5398 -0.8290
vn -0.1275 0.5241 -0.8421
vn -0.5203 0.5191 -0.6781
vn -0.3322 0.5194 -0.7874
vn -0.7396 0.3618 -0.5676
vn -0.5177 0.5141 -0.6839
vn -0.6655 0.5241 -0.5315
vn -0.6449 0.5398 -0.5410
vn -0.8407 0.4146 -0.3483
vn -0.7785 0.4130 -0.4727
vn -0.7790 0.4138 -0.4711
vn -0.7825 0.4176 -0.4619
vn -0.8501 0.5146 -0.1119
vn -0.7930 0.5241 -0.3106
vn -0.7910 0.5398 -0.2880
vn -0.8234 -0.3206 -0.4682
vn -0.8377 -0.2815 -0.4680
vn -0.8402 -0.2744 -0.4678
vn -0.8474 0.5191 0.1116
vn -0.8479 0.5194 -0.1060
vn -0.8613 0.3616 0.3568
vn -0.7930 0.5241 0.3106
vn -0.7910 0.5398 0.2880
vn -0.8511 0.5141 0.1064
vn -0.7219 0.4147 0.5540
vn -0.7986 0.4130 0.4378
vn -0.7975 0.4137 0.4391
vn -0.7913 0.4176 0.4467
vn -0.5220 0.5146 0.6802
vn -0.8170 -0.3211 0.4789
vn -0.8240 -0.2818 0.4915
vn -0.8250 -0.2750 0.4937
vn -0.6449 0.5398 0.5410
vn -0.6655 0.5241 0.5315
vn -0.3271 0.5190 0.7897
vn -0.5158 0.5194 0.6813
vn -0.3334 0.5141 0.7903
vn -0.1275 0.5241 0.8421
vn -0.1461 0.5398 0.8290
vn -0.3286 -0.5124 0.7934
vn -0.5228 -0.5124 0.6813
vn -0.6813 -0.5124 0.5228
vn -0.7934 -0.5124 0.3286
vn -0.8514 -0.5124 0.1121
vn -0.8514 -0.5124 -0.1121
vn -0.7934 -0.5124 -0.3286
vn -0.6813 -0.5124 -0.5228
vn -0.5228 -0.5124 -0.6813
vn -0.3286 -0.5124 -0.7934
vn -0.1830 -0.7076 0.6825
vn 0.1830 -0.7074 0.6827
vn 0.1829 -0.7076 0.6825
vn -0.4990 -0.7085 0.4990
vn -0.1830 -0.7074 0.6827
vn -0.6836 -0.7065 0.1832
vn -0.4997 -0.7075 0.4997
vn -0.6816 -0.7085 -0.1827
vn -0.6816 -0.7085 0.1826
vn -0.4997 -0.7075 -0.4997
vn -0.6837 -0.7065 -0.1831
vn -0.1830 -0.7074 -0.6827
vn -0.4990 -0.7085 -0.4991
vn 0.1830 -0.7076 -0.6825
vn -0.1829 -0.7076 -0.6825
vn 0.4990 -0.7085 -0.4990
vn 0.1830 -0.7074 -0.6827
vn 0.6836 -0.7065 -0.1832
vn 0.4997 -0.7075 -0.4997
vn 0.6816 -0.7085 0.1827
vn 0.6816 -0.7085 -0.1826
vn 0.4997 -0.7075 0.4997
vn 0.6837 -0.7065 0.1831
vn 0.4990 -0.7085 0.4991
vn -0.1643 -0.9031 -0.3968
vn -0.2614 -0.9031 -0.3407
vn -0.3407 -0.9031 -0.2614
vn -0.3968 -0.9031 -0.1643
vn -0.4258 -0.9031 -0.0561
vn -0.4258 -0.9031 0.0561
vn -0.3968 -0.9031 0.1643
vn -0.3407 -0.9031 0.2614
vn -0.2614 -0.9031 0.3407
vn -0.1643 -0.9031 0.3968
vn -0.2578 -0.7391 -0.6224
vn -0.4101 -0.7391 -0.5344
vn -0.5344 -0.7391 -0.4101
vn -0.6224 -0.7391 -0.2578
vn -0.6679 -0.7391 -0.0879
vn -0.6679 -0.7391 0.0879
vn -0.6224 -0.7391 0.2578
vn -0.5344 -0.7391 0.4101
vn -0.4101 -0.7391 0.5344
vn -0.2578 -0.7391 0.6224
vn -0.8660 -0.0000 0.5000
vn 0.0009 1.0000 -0.0002
vn -0.0009 1.0000 0.0007
vn -0.1043 0.9894 0.1012
vn -0.0290 0.9885 0.1481
vn -0.4998 0.3240 -0.8033
vn -0.5006 0.4463 -0.7418
vn 0.0005 1.0000 -0.0000
vn -0.0010 1.0000 0.0007
vn 0.8660 -0.0000 -0.5000
vn 0.5006 -0.4463 0.7418
vn -0.0008 1.0000 0.0004
vn -0.0011 1.0000 0.0004
vn -0.0015 1.0000 0.0006
vn -0.3921 -0.4463 -0.8044
vn -0.0017 1.0000 0.0006
vn -0.5015 0.0034 -0.8652
vn 0.4091 0.4468 0.7956
vn -0.1454 0.9885 0.0413
vn 0.3512 0.4408 0.8260
vn 0.4246 0.3519 0.8342
vn -0.1372 0.9892 0.0513
vn -0.3981 0.9053 0.1483
vn -0.5012 0.0023 -0.8653
vn 0.3229 0.4148 0.8507
vn -0.3988 0.9041 0.1538
vn -0.1451 0.9893 0.0173
vn -0.4240 0.9043 0.0506
vn -0.1442 0.9894 0.0190
vn -0.1446 0.9893 -0.0173
vn -0.4229 0.9048 -0.0505
vn -0.1450 0.9892 -0.0191
vn -0.4229 0.9047 0.0522
vn -0.2290 0.9697 -0.0855
vn -0.3981 0.9053 -0.1483
vn -0.1428 0.9885 0.0489
vn -0.1397 0.9894 -0.0397
vn -0.4236 0.9043 -0.0523
vn 0.3512 0.4408 -0.8260
vn -0.3763 0.9265 -0.0019
vn 0.4106 0.2403 -0.8796
vn 0.2998 0.3935 -0.8691
vn 0.4458 0.3240 -0.8345
vn -0.8660 -0.0000 -0.5000
vn 0.0006 1.0000 0.0007
vn -0.0010 1.0000 -0.0004
vn 0.3921 0.4463 -0.8044
vn 0.0003 1.0000 0.0005
vn -0.0011 1.0000 -0.0005
vn 0.8660 -0.0000 0.5000
vn -0.3921 -0.4463 0.8044
vn -0.0007 1.0000 -0.0005
vn -0.0009 1.0000 -0.0007
vn -0.0012 1.0000 -0.0010
vn 0.5006 -0.4463 -0.7418
vn -0.0014 1.0000 -0.0012
vn 0.4985 0.0034 -0.8669
vn -0.4845 0.4468 0.7521
vn -0.1085 0.9885 -0.1052
vn -0.5397 0.4408 0.7172
vn -0.5101 0.3519 0.7848
vn -0.1131 0.9892 -0.0932
vn -0.3275 0.9053 -0.2706
vn 0.4988 0.0023 -0.8667
vn -0.5753 0.4148 0.7050
vn -0.3326 0.9041 -0.2684
vn -0.0875 0.9893 -0.1170
vn -0.2558 0.9043 -0.3419
vn -0.0885 0.9894 -0.1154
vn -0.0573 0.9893 -0.1338
vn -0.1677 0.9048 -0.3915
vn -0.0560 0.9892 -0.1352
vn -0.2566 0.9047 -0.3401
vn -0.0405 0.9697 -0.2411
vn -0.0706 0.9053 -0.4190
vn -0.1138 0.9885 -0.0992
vn -0.0355 0.9894 -0.1409
vn -0.1665 0.9043 -0.3930
vn 0.8910 0.4408 -0.1088
vn -0.1865 0.9265 -0.3268
vn 0.9670 0.2403 -0.0842
vn 0.9025 0.3935 -0.1749
vn 0.9456 0.3240 -0.0312
vn -0.0000 -0.0000 -1.0000
vn -0.0003 1.0000 0.0009
vn -0.0001 1.0000 -0.0011
vn 0.8927 0.4463 -0.0626
vn -0.0003 1.0000 0.0005
vn -0.0002 1.0000 -0.0006
vn -0.0000 -0.0000 1.0000
vn -0.8927 -0.4463 0.0626
vn -0.0000 1.0000 -0.0018
vn 0.0003 1.0000 -0.0018
vn -0.0000 1.0000 -0.0005
vn 0.0001 1.0000 -0.0006
vn -0.0891 0.9892 0.1161
vn -0.0872 0.9893 0.1166
vn -0.0557 0.9894 0.1344
vn -0.0575 0.9893 0.1343
vn -0.0001 1.0000 0.0006
vn -0.0003 1.0000 0.0018
vn -0.0000 1.0000 0.0005
vn -0.0002 1.0000 0.0012
vn -0.0003 1.0000 0.0016
vn -0.0369 0.9885 0.1466
vn -0.0241 0.9892 0.1445
vn 0.0002 1.0000 0.0006
vn 0.0001 1.0000 0.0011
vn 0.0003 1.0000 -0.0009
vn 0.0003 1.0000 -0.0005
vn -0.0000 1.0000 0.0018
vn -0.8927 -0.4463 -0.0626
vn -1.0000 0.0034 0.0017
vn 0.8936 0.4468 0.0435
vn 0.8910 0.4408 0.1088
vn 0.9347 0.3519 0.0494
vn -0.0706 0.9053 0.4190
vn -0.0662 0.9041 0.4223
vn -1.0000 0.0023 0.0014
vn 0.8982 0.4148 0.1457
vn -0.1682 0.9043 0.3925
vn -0.2551 0.9048 0.3410
vn -0.1662 0.9047 0.3923
vn -0.1885 0.9697 0.1556
vn -0.3275 0.9053 0.2706
vn -0.2571 0.9043 0.3407
vn -0.5397 0.4408 -0.7172
vn -0.1898 0.9265 0.3249
vn -0.5564 0.2403 -0.7954
vn -0.6027 0.3935 -0.6942
vn 0.2439 0.4261 0.8712
vn 0.3477 0.3157 0.8829
vn -0.6236 0.7438 0.2407
vn -0.5012 0.0021 -0.8653
vn 0.2372 0.3690 0.8987
vn -0.6242 0.7422 0.2442
vn -0.6648 0.7425 0.0820
vn -0.6641 0.7431 -0.0819
vn -0.6640 0.7431 0.0830
vn -0.4391 0.8823 -0.1694
vn -0.6236 0.7438 -0.2407
vn -0.6646 0.7426 -0.0831
vn 0.2439 0.4261 -0.8712
vn -0.5822 0.8106 -0.0627
vn 0.3838 0.1818 -0.9053
vn 0.2298 0.3127 -0.9216
vn -0.5011 0.0021 -0.8654
vn 0.1875 0.3447 0.9198
vn 0.2320 0.3106 0.9218
vn 0.1549 0.2920 0.9438
vn 0.1843 0.2077 0.9607
vn -0.7069 0.6510 -0.2767
vn -0.6207 0.7521 -0.2214
vn 0.3459 0.1414 -0.9275
vn 0.1197 0.2446 -0.9622
vn 0.1875 0.3447 -0.9198
vn 0.1287 0.2494 -0.9598
vn 0.3718 0.9006 -0.2251
vn 0.3811 0.8980 -0.2200
vn 0.1231 0.2526 0.9597
vn -0.3810 -0.8980 0.2200
vn -0.1231 -0.2526 -0.9597
vn 0.3810 0.8980 -0.2200
vn -0.3811 -0.8980 0.2200
vn 0.7696 -0.2526 0.5865
vn 0.7696 -0.2526 0.5864
vn -0.7735 0.2446 -0.5848
vn -0.5931 0.6510 0.4738
vn -0.6303 0.1414 -0.7634
vn -0.4042 0.7426 0.5340
vn -0.5021 0.7521 0.4269
vn -0.3454 0.8106 0.4729
vn -0.5203 0.7438 0.4197
vn -0.2601 0.7431 0.6166
vn -0.4030 0.7431 0.5342
vn -0.1006 0.7422 0.6626
vn -0.2614 0.7425 0.6168
vn -0.1033 0.7438 0.6604
vn 0.9241 0.2077 0.3208
vn -1.0000 0.0020 0.0012
vn -1.0000 0.0021 0.0013
vn 0.8948 0.2920 0.3377
vn -0.0000 0.8877 -0.4603
vn -0.0000 0.8980 -0.4400
vn 0.8927 0.2526 0.3733
vn -0.0000 -0.8980 0.4400
vn -0.8927 -0.2526 -0.3732
vn -0.8927 -0.2526 -0.3733
vn -0.0044 0.4301 0.9028
vn 0.0044 0.4301 -0.9028
vn -0.0000 -0.8980 -0.4400
vn -0.0000 -0.8980 -0.4399
vn -0.0000 0.8980 0.4400
vn -0.8927 -0.2526 0.3733
vn 0.8931 0.2446 -0.3775
vn -0.1138 0.6510 -0.7505
vn 0.9762 0.1414 -0.1642
vn -0.2604 0.7426 -0.6171
vn -0.1033 0.7438 -0.6604
vn -0.2369 0.8106 -0.5355
vn -0.1186 0.7521 -0.6483
vn -0.4039 0.7431 -0.5336
vn -0.2611 0.7431 -0.6161
vn -0.5235 0.7422 -0.4185
vn -0.5203 0.7438 -0.4197
vn -0.4035 0.7425 -0.5347
vn -0.7398 0.2077 0.6399
vn 0.4990 0.0019 -0.8666
vn 0.4989 0.0021 -0.8667
vn -0.7399 0.2920 0.6061
vn 0.4082 0.8733 0.2658
vn 0.3810 0.8980 0.2200
vn -0.7696 0.2526 0.5865
vn -0.3811 -0.8980 -0.2200
vn 0.7696 -0.2526 -0.5865
vn 0.7696 -0.2526 -0.5864
vn 0.3811 0.8980 0.2200
vn -0.3810 -0.8980 -0.2200
vn 0.3811 0.8980 0.2199
vn -0.1231 -0.2526 0.9597
vn -0.7029 0.3447 -0.6223
vn -0.7669 0.2494 -0.5913
vn -0.5922 0.1819 -0.7850
vn -0.3662 0.8823 0.2956
vn -0.6325 0.4261 -0.6468
vn -0.6832 0.3127 -0.6598
vn 0.8968 0.3690 0.2439
vn 0.8764 0.4261 0.2244
vn 0.8903 0.3447 0.2976
vn 0.9143 0.3106 0.2600
vn 0.9384 0.3157 0.1403
vn -0.6325 0.4261 0.6468
vn -0.5907 0.3157 0.7426
vn -0.6597 0.3690 0.6547
vn -0.0728 0.8823 -0.4650
vn 0.8764 0.4261 -0.2244
vn 0.9759 0.1818 -0.1203
vn 0.9131 0.3127 -0.2618
vn -0.7029 0.3447 0.6223
vn -0.6823 0.3106 0.6618
vn 0.8903 0.3447 -0.2976
vn 0.8956 0.2494 -0.3685
vn 0.0557 0.9894 -0.1344
vn 0.0003 1.0000 -0.0016
vn 0.0002 1.0000 -0.0012
vn 0.0369 0.9885 -0.1466
vn 0.0241 0.9892 -0.1445
vn 0.0891 0.9892 -0.1161
vn 0.0575 0.9893 -0.1343
vn 0.0009 1.0000 -0.0007
vn 0.0872 0.9893 -0.1166
vn 0.1043 0.9894 -0.1012
vn 0.0011 1.0000 -0.0004
vn -0.0009 1.0000 0.0002
vn -0.0005 1.0000 -0.0000
vn 0.0010 1.0000 -0.0007
vn 0.1442 0.9894 -0.0190
vn 0.0008 1.0000 -0.0004
vn 0.0015 1.0000 -0.0006
vn 0.0017 1.0000 -0.0006
vn 0.1454 0.9885 -0.0413
vn 0.1372 0.9892 -0.0513
vn 0.1450 0.9892 0.0191
vn 0.1451 0.9893 -0.0173
vn 0.0010 1.0000 0.0004
vn 0.1446 0.9893 0.0173
vn 0.1397 0.9894 0.0397
vn 0.0009 1.0000 0.0007
vn -0.0006 1.0000 -0.0007
vn -0.0003 1.0000 -0.0005
vn 0.0011 1.0000 0.0005
vn 0.0885 0.9894 0.1154
vn 0.0007 1.0000 0.0005
vn 0.0012 1.0000 0.0010
vn 0.0014 1.0000 0.0012
vn 0.1085 0.9885 0.1052
vn 0.1131 0.9892 0.0932
vn 0.0560 0.9892 0.1352
vn 0.0875 0.9893 0.1170
vn 0.0573 0.9893 0.1338
vn 0.0355 0.9894 0.1409
vn 0.8927 -0.4463 0.0626
vn 1.0000 0.0034 -0.0017
vn -0.8936 0.4468 -0.0435
vn -0.8910 0.4408 -0.1088
vn -0.9347 0.3519 -0.0494
vn 0.0706 0.9053 -0.4190
vn 1.0000 0.0023 -0.0014
vn -0.8982 0.4148 -0.1457
vn 0.0662 0.9041 -0.4223
vn 0.1682 0.9043 -0.3925
vn 0.2551 0.9048 -0.3410
vn 0.1662 0.9047 -0.3923
vn 0.1885 0.9697 -0.1556
vn 0.3275 0.9053 -0.2706
vn 0.0290 0.9885 -0.1481
vn 0.2571 0.9043 -0.3407
vn 0.5397 0.4408 0.7172
vn 0.1898 0.9265 -0.3249
vn 0.5564 0.2403 0.7954
vn 0.6027 0.3935 0.6942
vn 0.4998 0.3240 0.8033
vn 0.5006 0.4463 0.7418
vn -0.5006 -0.4463 -0.7418
vn 0.3921 -0.4463 0.8044
vn 0.5015 0.0034 0.8652
vn -0.4091 0.4468 -0.7956
vn -0.3512 0.4408 -0.8260
vn -0.4246 0.3519 -0.8342
vn 0.3981 0.9053 -0.1483
vn 0.5012 0.0023 0.8653
vn -0.3229 0.4148 -0.8507
vn 0.3988 0.9041 -0.1538
vn 0.4240 0.9043 -0.0506
vn 0.4229 0.9048 0.0505
vn 0.4229 0.9047 -0.0522
vn 0.2290 0.9697 0.0855
vn 0.3981 0.9053 0.1483
vn 0.1428 0.9885 -0.0489
vn 0.4236 0.9043 0.0523
vn -0.3512 0.4408 0.8260
vn 0.3763 0.9265 0.0019
vn -0.4106 0.2403 0.8796
vn -0.2998 0.3935 0.8691
vn -0.4458 0.3240 0.8345
vn -0.3921 0.4463 0.8044
vn 0.3921 -0.4463 -0.8044
vn -0.5006 -0.4463 0.7418
vn -0.4985 0.0034 0.8669
vn 0.4845 0.4468 -0.7521
vn 0.5397 0.4408 -0.7172
vn 0.5101 0.3519 -0.7848
vn 0.3275 0.9053 0.2706
vn 0.3326 0.9041 0.2684
vn -0.4988 0.0023 0.8667
vn 0.5753 0.4148 -0.7050
vn 0.2558 0.9043 0.3419
vn 0.1677 0.9048 0.3915
vn 0.2566 0.9047 0.3401
vn 0.0405 0.9697 0.2411
vn 0.0706 0.9053 0.4190
vn 0.1138 0.9885 0.0992
vn 0.1665 0.9043 0.3930
vn -0.8910 0.4408 0.1088
vn 0.1865 0.9265 0.3268
vn -0.9670 0.2403 0.0842
vn -0.9025 0.3935 0.1749
vn -0.9456 0.3240 0.0312
vn -0.8927 0.4463 0.0626
vn 0.8927 -0.4463 -0.0626
vn -0.8764 0.4261 -0.2244
vn -0.9384 0.3157 -0.1403
vn 0.1033 0.7438 -0.6604
vn 1.0000 0.0020 -0.0012
vn -0.8968 0.3690 -0.2439
vn 0.1006 0.7422 -0.6626
vn 0.2614 0.7425 -0.6168
vn 0.4030 0.7431 -0.5342
vn 0.2601 0.7431 -0.6166
vn 0.3662 0.8823 -0.2956
vn 0.5203 0.7438 -0.4197
vn 0.4042 0.7426 -0.5340
vn 0.6325 0.4261 0.6468
vn 0.3454 0.8106 -0.4729
vn 0.5922 0.1819 0.7850
vn 0.6832 0.3127 0.6598
vn 1.0000 0.0021 -0.0013
vn -0.8903 0.3447 -0.2976
vn -0.9143 0.3106 -0.2600
vn -0.8948 0.2920 -0.3377
vn -0.9241 0.2077 -0.3208
vn 0.5931 0.6510 -0.4738
vn 0.5021 0.7521 -0.4269
vn 0.6303 0.1414 0.7634
vn 0.7735 0.2446 0.5848
vn 0.7029 0.3447 0.6223
vn 0.7669 0.2494 0.5913
vn -0.0000 0.8877 0.4603
vn -0.8927 0.2526 -0.3733
vn 0.8927 -0.2526 0.3732
vn 0.8927 -0.2526 0.3733
vn -0.0000 -0.8980 0.4399
vn 0.8927 -0.2526 -0.3733
vn -0.8931 0.2446 0.3775
vn 0.1138 0.6510 0.7505
vn -0.9762 0.1414 0.1642
vn 0.2604 0.7426 0.6171
vn 0.1186 0.7521 0.6483
vn 0.2369 0.8106 0.5355
vn 0.1033 0.7438 0.6604
vn 0.4039 0.7431 0.5336
vn 0.2611 0.7431 0.6161
vn 0.5235 0.7422 0.4185
vn 0.4035 0.7425 0.5347
vn 0.5203 0.7438 0.4197
vn 0.7398 0.2077 -0.6399
vn -0.4990 0.0019 0.8666
vn -0.4989 0.0021 0.8667
vn 0.7399 0.2920 -0.6061
vn -0.4082 0.8733 -0.2658
vn -0.3810 0.8980 -0.2200
vn 0.7696 0.2526 -0.5865
vn 0.3811 -0.8980 0.2200
vn -0.7696 -0.2526 0.5865
vn -0.7696 -0.2526 0.5864
vn -0.3811 0.8980 -0.2200
vn 0.3810 -0.8980 0.2200
vn -0.3811 0.8980 -0.2199
vn 0.1231 -0.2526 -0.9597
vn -0.1197 0.2446 0.9622
vn 0.7069 0.6510 0.2767
vn -0.3459 0.1414 0.9275
vn 0.6646 0.7426 0.0831
vn 0.6236 0.7438 0.2407
vn 0.5822 0.8106 0.0627
vn 0.6207 0.7521 0.2214
vn 0.6640 0.7431 -0.0830
vn 0.6641 0.7431 0.0819
vn 0.6242 0.7422 -0.2442
vn 0.6236 0.7438 -0.2407
vn 0.6648 0.7425 -0.0820
vn -0.1843 0.2077 -0.9607
vn 0.5011 0.0021 0.8654
vn -0.1549 0.2920 -0.9438
vn -0.3718 0.9006 0.2251
vn -0.3811 0.8980 0.2200
vn -0.1231 0.2526 -0.9597
vn 0.3810 -0.8980 -0.2200
vn 0.1231 -0.2526 0.9597
vn -0.3810 0.8980 0.2200
vn 0.3811 -0.8980 -0.2200
vn -0.7696 -0.2526 -0.5865
vn -0.7696 -0.2526 -0.5864
vn -0.8903 0.3447 0.2976
vn -0.8956 0.2494 0.3685
vn -0.9759 0.1818 0.1203
vn 0.0728 0.8823 0.4650
vn -0.8764 0.4261 0.2244
vn -0.9131 0.3127 0.2618
vn 0.6597 0.3690 -0.6547
vn 0.6325 0.4261 -0.6468
vn 0.7029 0.3447 -0.6223
vn 0.6823 0.3106 -0.6618
vn 0.5907 0.3157 -0.7426
vn -0.2439 0.4261 -0.8712
vn -0.3477 0.3157 -0.8829
vn -0.2372 0.3690 -0.8987
vn 0.4391 0.8823 0.1694
vn -0.2439 0.4261 0.8712
vn -0.3838 0.1818 0.9053
vn -0.2298 0.3127 0.9216
vn -0.1875 0.3447 -0.9198
vn -0.2320 0.3106 -0.9218
vn -0.1875 0.3447 0.9198
vn -0.1287 0.2494 0.9598
vn -0.0000 0.9903 0.1389
vn -0.0000 0.5605 0.8281
vn -0.0000 0.9138 0.4061
vn 0.8927 -0.4119 -0.1830
vn -0.0000 0.7668 0.6419
vn 0.8927 -0.3456 -0.2893
vn -0.8927 -0.3456 -0.2893
vn -0.8927 -0.4119 -0.1830
vn -0.0000 -0.9903 -0.1389
vn -0.0000 -0.9138 -0.4061
vn -0.0000 -0.7668 -0.6419
vn -0.0000 -0.5605 -0.8281
vn -0.1203 0.9903 0.0695
vn -0.7172 0.5605 0.4141
vn -0.3517 0.9138 0.2031
vn 0.6049 -0.4119 0.6816
vn -0.5559 0.7668 0.3210
vn 0.6969 -0.3456 0.6284
vn -0.1958 -0.3456 -0.9177
vn -0.2878 -0.4119 -0.8646
vn 0.1203 -0.9903 -0.0695
vn 0.3517 -0.9138 -0.2031
vn 0.5559 -0.7668 -0.3210
vn 0.7172 -0.5605 -0.4141
vn -0.1203 0.9903 -0.0695
vn -0.7172 0.5605 -0.4141
vn -0.3517 0.9138 -0.2031
vn -0.2878 -0.4119 0.8646
vn -0.5559 0.7668 -0.3210
vn -0.1958 -0.3456 0.9177
vn 0.6969 -0.3456 -0.6284
vn 0.6049 -0.4119 -0.6816
vn 0.1203 -0.9903 0.0695
vn 0.3517 -0.9138 0.2031
vn 0.5559 -0.7668 0.3210
vn 0.7172 -0.5605 0.4141
vn -0.0000 0.9903 -0.1389
vn -0.0000 0.5605 -0.8281
vn -0.0000 0.9138 -0.4061
vn -0.8927 -0.4119 0.1830
vn -0.0000 0.7668 -0.6419
vn -0.8927 -0.3456 0.2893
vn 0.8927 -0.3456 0.2893
vn 0.8927 -0.4119 0.1830
vn -0.0000 -0.9903 0.1389
vn -0.0000 -0.9138 0.4061
vn -0.0000 -0.7668 0.6419
vn -0.0000 -0.5605 0.8281
vn 0.1203 0.9903 -0.0695
vn 0.7172 0.5605 -0.4141
vn 0.3517 0.9138 -0.2031
vn -0.6049 -0.4119 -0.6816
vn 0.5559 0.7668 -0.3210
vn -0.6969 -0.3456 -0.6284
vn 0.1958 -0.3456 0.9177
vn 0.2878 -0.4119 0.8646
vn -0.1203 -0.9903 0.0695
vn -0.3517 -0.9138 0.2031
vn -0.5559 -0.7668 0.3210
vn -0.7172 -0.5605 0.4141
vn 0.1203 0.9903 0.0695
vn 0.7172 0.5605 0.4141
vn 0.3517 0.9138 0.2031
vn 0.2878 -0.4119 -0.8646
vn 0.5559 0.7668 0.3210
vn 0.1958 -0.3456 -0.9177
vn -0.6969 -0.3456 0.6284
vn -0.6049 -0.4119 0.6816
vn -0.1203 -0.9903 -0.0695
vn -0.3517 -0.9138 -0.2031
vn -0.5559 -0.7668 -0.3210
vn -0.7172 -0.5605 -0.4141
vn -0.1829 0.7076 -0.6825
vn 0.1877 0.6889 -0.7002
vn 0.1094 0.7154 -0.6901
vn -0.5082 0.6953 -0.5083
vn -0.1173 0.6620 -0.7403
vn -0.3127 0.7249 -0.6138
vn -0.7002 0.6889 -0.1876
vn -0.6138 0.7249 -0.3127
vn -0.5082 0.6953 -0.5082
vn -0.6826 0.7076 0.1828
vn -0.6901 0.7154 -0.1093
vn -0.5082 0.6953 0.5083
vn -0.6138 0.7249 0.3127
vn -0.7402 0.6620 0.1172
vn -0.1877 0.6889 0.7002
vn -0.3127 0.7249 0.6138
vn 0.1829 0.7076 0.6825
vn -0.1094 0.7154 0.6901
vn 0.5082 0.6953 0.5083
vn 0.1173 0.6620 0.7403
vn 0.3127 0.7249 0.6138
vn 0.7002 0.6889 0.1876
vn 0.5082 0.6953 0.5082
vn 0.6138 0.7249 0.3127
vn 0.6826 0.7076 -0.1828
vn 0.6901 0.7154 0.1093
vn 0.5082 0.6953 -0.5083
vn 0.7402 0.6620 -0.1172
vn 0.6138 0.7249 -0.3127
vn 0.3127 0.7249 -0.6138
vn 0.1889 0.2542 0.9485
vn -0.1860 0.3058 0.9337
vn -0.2506 0.2506 0.9351
vn 0.5410 0.2268 0.8098
vn 0.2472 0.2958 0.9227
vn 0.8097 0.2272 0.5411
vn 0.6721 0.3106 0.6721
vn 0.9338 0.3059 0.1856
vn 0.9487 0.2539 -0.1885
vn 0.9352 0.2503 0.2506
vn 0.8097 0.2272 -0.5411
vn 0.9227 0.2959 -0.2472
vn 0.5410 0.2268 -0.8098
vn 0.6721 0.3106 -0.6721
vn 0.1860 0.3058 -0.9337
vn -0.1889 0.2542 -0.9485
vn 0.2506 0.2506 -0.9351
vn -0.5410 0.2268 -0.8098
vn -0.2472 0.2958 -0.9227
vn -0.8097 0.2272 -0.5411
vn -0.6721 0.3106 -0.6721
vn -0.9338 0.3059 -0.1856
vn -0.9487 0.2539 0.1885
vn -0.9352 0.2503 -0.2506
vn -0.8097 0.2272 0.5411
vn -0.9227 0.2959 0.2472
vn -0.5410 0.2268 0.8098
vn -0.6721 0.3106 0.6721
vn -0.2079 0.5955 -0.7760
vn 0.4356 0.5480 -0.7141
vn 0.1861 0.6949 -0.6946
vn -0.5085 0.6949 -0.5085
vn -0.1861 0.6949 -0.6946
vn -0.3041 0.7559 -0.5797
vn -0.6946 0.6949 -0.1861
vn -0.6946 0.6949 0.1861
vn -0.5085 0.6949 0.5085
vn -0.1861 0.6949 0.6946
vn -0.4356 0.5480 0.7141
vn 0.2079 0.5955 0.7760
vn -0.0691 0.9637 0.2579
vn 0.0691 0.9637 0.2579
vn -0.1888 0.9637 0.1888
vn -0.2579 0.9637 0.0691
vn -0.2579 0.9637 -0.0691
vn -0.1888 0.9637 -0.1888
vn -0.0691 0.9637 -0.2579
vn 0.0691 0.9637 -0.2579
vn 0.1888 0.9637 -0.1888
vn 0.2579 0.9637 -0.0691
vn 0.2579 0.9637 0.0691
vn 0.1888 0.9637 0.1888
vn -0.1609 0.7832 0.6006
vn 0.3041 0.7559 0.5797
vn 0.1861 0.6949 0.6946
vn 0.1609 0.7832 -0.6006
vn 0.5085 0.6949 0.5085
vn 0.6946 0.6949 0.1861
vn 0.6946 0.6949 -0.1861
vn 0.5085 0.6949 -0.5085
vn 0.8927 0.4463 0.0626
vn -0.8927 0.2526 0.3733
vn 0.8927 0.4119 0.1830
vn 0.8927 0.3456 0.2893
vn -0.8927 0.3456 0.2893
vn -0.8927 0.4119 0.1830
vn 0.3921 0.4463 0.8044
vn -0.7696 0.2526 -0.5865
vn 0.2878 0.4119 0.8646
vn 0.1958 0.3456 0.9177
vn -0.6969 0.3456 -0.6284
vn -0.6049 0.4119 -0.6816
vn -0.5006 0.4463 0.7418
vn -0.7696 0.2526 0.5864
vn 0.1231 0.2526 -0.9597
vn -0.6049 0.4119 0.6816
vn -0.6969 0.3456 0.6284
vn 0.1958 0.3456 -0.9177
vn 0.2878 0.4119 -0.8646
vn -0.8927 0.4463 -0.0626
vn 0.8927 0.2526 -0.3733
vn -0.8927 0.4119 -0.1830
vn -0.8927 0.3456 -0.2893
vn 0.8927 0.3456 -0.2893
vn 0.8927 0.4119 -0.1830
vn -0.3921 0.4463 -0.8044
vn 0.7696 0.2526 0.5865
vn -0.2878 0.4119 -0.8646
vn -0.1958 0.3456 -0.9177
vn 0.6969 0.3456 0.6284
vn 0.6049 0.4119 0.6816
vn 0.5006 0.4463 -0.7418
vn 0.7696 0.2526 -0.5864
vn -0.1231 0.2526 0.9597
vn 0.6049 0.4119 -0.6816
vn 0.6969 0.3456 -0.6284
vn -0.1958 0.3456 0.9177
vn -0.2878 0.4119 0.8646
s 0
f 1//1 2//1 3//1
f 4//2 3//2 2//2
f 5//1 1//1 3//1
f 6//1 5//1 3//1
f 6//1 3//1 7//1
f 8//3 7//3 3//3
f 4//4 8//4 3//4
f 9//1 10//1 2//1
f 11//5 2//5 10//5
f 12//1 2//1 1//1
f 13//1 9//1 2//1
f 14//1 13//1 2//1
f 15//1 14//1 2//1
f 16//1 15//1 2//1
f 17//1 16//1 2//1
f 12//1 17//1 2//1
f 11//6 4//6 2//6
f 18//1 19//1 10//1
f 20//7 10//7 19//7
f 21//1 18//1 10//1
f 9//1 21//1 10//1
f 20//5 11//5 10//5
f 22//1 23//1 19//1
f 24//8 19//8 23//8
f 18//1 22//1 19//1
f 24//7 20//7 19//7
f 25//1 26//1 23//1
f 27//9 23//9 26//9
f 22//1 25//1 23//1
f 27//8 24//8 23//8
f 25//1 28//1 26//1
f 29//10 26//10 28//10
f 29//9 27//9 26//9
f 30//11 28//11 25//11
f 30//10 29//10 28//10
f 31//12 25//12 22//12
f 31//11 30//11 25//11
f 32//13 22//13 18//13
f 32//12 31//12 22//12
f 33//14 18//14 21//14
f 33//13 32//13 18//13
f 12//1 1//1 21//1
f 34//15 21//15 1//15
f 35//1 21//1 9//1
f 36//1 12//1 21//1
f 37//1 36//1 21//1
f 38//1 37//1 21//1
f 39//1 38//1 21//1
f 35//1 39//1 21//1
f 34//16 33//16 21//16
f 40//17 1//17 5//17
f 40//15 34//15 1//15
f 41//1 42//1 5//1
f 43//18 5//18 42//18
f 44//1 5//1 45//1
f 6//1 45//1 5//1
f 46//1 41//1 5//1
f 47//1 46//1 5//1
f 48//1 47//1 5//1
f 44//1 48//1 5//1
f 40//19 5//19 43//19
f 49//1 50//1 42//1
f 51//20 42//20 50//20
f 7//1 49//1 42//1
f 52//1 7//1 42//1
f 41//1 52//1 42//1
f 51//21 43//21 42//21
f 53//1 54//1 50//1
f 55//22 50//22 54//22
f 49//1 53//1 50//1
f 55//20 51//20 50//20
f 56//1 57//1 54//1
f 58//23 54//23 57//23
f 53//1 56//1 54//1
f 58//22 55//22 54//22
f 59//1 60//1 57//1
f 61//24 57//24 60//24
f 56//1 59//1 57//1
f 61//23 58//23 57//23
f 59//1 62//1 60//1
f 63//25 60//25 62//25
f 63//24 61//24 60//24
f 64//26 62//26 59//26
f 64//25 63//25 62//25
f 65//27 59//27 56//27
f 65//26 64//26 59//26
f 66//28 56//28 53//28
f 66//27 65//27 56//27
f 67//29 53//29 49//29
f 67//28 66//28 53//28
f 68//30 49//30 7//30
f 68//31 67//31 49//31
f 69//1 7//1 52//1
f 70//1 6//1 7//1
f 71//1 70//1 7//1
f 72//1 71//1 7//1
f 73//1 72//1 7//1
f 74//1 73//1 7//1
f 69//1 74//1 7//1
f 8//30 68//30 7//30
f 75//1 76//1 45//1
f 77//32 45//32 76//32
f 78//33 44//33 45//33
f 75//1 45//1 6//1
f 78//33 45//33 77//33
f 79//1 80//1 76//1
f 81//34 76//34 80//34
f 75//1 79//1 76//1
f 81//32 77//32 76//32
f 82//1 83//1 80//1
f 84//35 80//35 83//35
f 79//1 82//1 80//1
f 81//34 80//34 84//34
f 85//1 86//1 83//1
f 87//36 83//36 86//36
f 82//1 85//1 83//1
f 84//35 83//35 87//35
f 88//1 89//1 86//1
f 90//37 86//37 89//37
f 85//1 88//1 86//1
f 87//36 86//36 90//36
f 69//1 52//1 89//1
f 91//38 89//38 52//38
f 88//1 69//1 89//1
f 90//37 89//37 91//37
f 92//39 52//39 41//39
f 91//38 52//38 92//38
f 93//40 41//40 46//40
f 92//39 41//39 93//39
f 94//41 46//41 47//41
f 93//40 46//40 94//40
f 95//42 47//42 48//42
f 94//41 47//41 95//41
f 96//43 48//43 44//43
f 95//42 48//42 96//42
f 96//43 44//43 78//43
f 97//32 6//32 70//32
f 98//33 75//33 6//33
f 98//33 6//33 97//33
f 99//34 70//34 71//34
f 99//32 97//32 70//32
f 100//35 71//35 72//35
f 99//34 71//34 100//34
f 101//36 72//36 73//36
f 100//35 72//35 101//35
f 102//37 73//37 74//37
f 101//36 73//36 102//36
f 103//38 74//38 69//38
f 102//37 74//37 103//37
f 104//39 69//39 88//39
f 103//38 69//38 104//38
f 105//40 88//40 85//40
f 104//39 88//39 105//39
f 106//41 85//41 82//41
f 105//40 85//40 106//40
f 107//42 82//42 79//42
f 106//41 82//41 107//41
f 108//43 79//43 75//43
f 107//42 79//42 108//42
f 108//43 75//43 98//43
f 109//32 9//32 13//32
f 110//33 35//33 9//33
f 110//33 9//33 109//33
f 111//34 13//34 14//34
f 111//32 109//32 13//32
f 112//35 14//35 15//35
f 111//34 14//34 112//34
f 113//36 15//36 16//36
f 112//35 15//35 113//35
f 114//37 16//37 17//37
f 113//36 16//36 114//36
f 115//38 17//38 12//38
f 114//37 17//37 115//37
f 116//39 12//39 36//39
f 115//38 12//38 116//38
f 117//40 36//40 37//40
f 116//39 36//39 117//39
f 118//41 37//41 38//41
f 117//40 37//40 118//40
f 119//42 38//42 39//42
f 118//41 38//41 119//41
f 120//43 39//43 35//43
f 119//42 39//42 120//42
f 120//43 35//43 110//43
f 121//44 43//44 51//44
f 122//45 43//45 121//45
f 122//45 40//45 43//45
f 123//46 51//46 55//46
f 123//44 121//44 51//44
f 124//47 55//47 58//47
f 124//46 123//46 55//46
f 125//48 58//48 61//48
f 125//47 124//47 58//47
f 126//49 61//49 63//49
f 126//48 125//48 61//48
f 127//50 63//50 64//50
f 127//49 126//49 63//49
f 128//51 64//51 65//51
f 128//50 127//50 64//50
f 129//52 65//52 66//52
f 129//51 128//51 65//51
f 130//53 66//53 67//53
f 130//52 129//52 66//52
f 131//54 67//54 68//54
f 131//53 130//53 67//53
f 132//55 68//55 8//55
f 132//54 131//54 68//54
f 133//56 8//56 4//56
f 133//55 132//55 8//55
f 133//56 4//56 134//56
f 11//57 134//57 4//57
f 135//58 133//58 134//58
f 135//58 134//58 136//58
f 137//59 136//59 134//59
f 137//57 134//57 11//57
f 138//60 121//60 123//60
f 139//61 121//61 138//61
f 139//61 122//61 121//61
f 140//62 123//62 124//62
f 140//60 138//60 123//60
f 141//63 124//63 125//63
f 141//62 140//62 124//62
f 142//64 125//64 126//64
f 142//63 141//63 125//63
f 143//65 126//65 127//65
f 143//64 142//64 126//64
f 144//66 127//66 128//66
f 144//65 143//65 127//65
f 145//67 128//67 129//67
f 145//66 144//66 128//66
f 146//68 129//68 130//68
f 146//67 145//67 129//67
f 147//69 130//69 131//69
f 147//68 146//68 130//68
f 148//70 131//70 132//70
f 148//69 147//69 131//69
f 149//71 132//71 133//71
f 149//70 148//70 132//70
f 135//71 149//71 133//71
f 150//72 135//72 136//72
f 150//72 136//72 151//72
f 152//73 151//73 136//73
f 152//59 136//59 137//59
f 153//74 138//74 140//74
f 154//75 138//75 153//75
f 139//75 138//75 154//75
f 155//76 140//76 141//76
f 155//74 153//74 140//74
f 156//77 141//77 142//77
f 156//76 155//76 141//76
f 157//78 142//78 143//78
f 157//77 156//77 142//77
f 158//79 143//79 144//79
f 158//78 157//78 143//78
f 159//80 144//80 145//80
f 159//79 158//79 144//79
f 160//81 145//81 146//81
f 160//80 159//80 145//80
f 161//82 146//82 147//82
f 161//81 160//81 146//81
f 162//83 147//83 148//83
f 162//82 161//82 147//82
f 163//84 148//84 149//84
f 163//83 162//83 148//83
f 164//85 149//85 135//85
f 164//84 163//84 149//84
f 150//85 164//85 135//85
f 165//86 150//86 151//86
f 165//86 151//86 166//86
f 167//86 166//86 151//86
f 152//73 167//73 151//73
f 168//86 153//86 155//86
f 168//86 169//86 153//86
f 154//86 153//86 169//86
f 170//86 155//86 156//86
f 171//86 168//86 155//86
f 170//86 171//86 155//86
f 172//86 156//86 157//86
f 172//86 170//86 156//86
f 173//86 157//86 158//86
f 173//86 172//86 157//86
f 174//86 158//86 159//86
f 174//86 173//86 158//86
f 175//86 159//86 160//86
f 175//86 174//86 159//86
f 175//86 160//86 161//86
f 176//86 161//86 162//86
f 176//86 175//86 161//86
f 177//86 162//86 163//86
f 177//86 176//86 162//86
f 178//86 163//86 164//86
f 178//86 177//86 163//86
f 179//86 164//86 150//86
f 179//86 178//86 164//86
f 165//86 179//86 150//86
f 167//86 180//86 166//86
f 181//87 166//87 180//87
f 182//88 165//88 166//88
f 183//89 182//89 166//89
f 184//90 183//90 166//90
f 185//91 184//91 166//91
f 181//92 185//92 166//92
f 167//86 186//86 180//86
f 187//93 180//93 186//93
f 181//94 180//94 188//94
f 189//95 188//95 180//95
f 190//96 189//96 180//96
f 191//97 190//97 180//97
f 192//98 191//98 180//98
f 193//99 192//99 180//99
f 187//100 193//100 180//100
f 194//86 195//86 186//86
f 196//101 186//101 195//101
f 167//86 194//86 186//86
f 196//102 187//102 186//102
f 197//86 198//86 195//86
f 199//103 195//103 198//103
f 194//86 197//86 195//86
f 200//104 196//104 195//104
f 201//105 200//105 195//105
f 199//106 201//106 195//106
f 202//86 203//86 198//86
f 204//107 198//107 203//107
f 197//86 202//86 198//86
f 205//108 199//108 198//108
f 206//109 205//109 198//109
f 204//110 206//110 198//110
f 207//86 208//86 203//86
f 209//111 203//111 208//111
f 202//86 207//86 203//86
f 210//112 204//112 203//112
f 211//113 210//113 203//113
f 212//114 211//114 203//114
f 213//115 212//115 203//115
f 209//116 213//116 203//116
f 214//86 215//86 208//86
f 216//117 208//117 215//117
f 217//86 214//86 208//86
f 207//86 217//86 208//86
f 216//118 209//118 208//118
f 218//86 219//86 215//86
f 220//119 215//119 219//119
f 214//86 218//86 215//86
f 221//120 216//120 215//120
f 222//121 221//121 215//121
f 220//122 222//122 215//122
f 223//86 224//86 219//86
f 225//123 219//123 224//123
f 218//86 223//86 219//86
f 226//124 220//124 219//124
f 227//125 226//125 219//125
f 225//126 227//126 219//126
f 228//86 229//86 224//86
f 230//127 224//127 229//127
f 223//86 228//86 224//86
f 231//128 224//128 230//128
f 232//129 224//129 231//129
f 233//130 225//130 224//130
f 234//131 233//131 224//131
f 232//132 234//132 224//132
f 154//86 169//86 229//86
f 235//133 229//133 169//133
f 228//86 154//86 229//86
f 230//134 229//134 235//134
f 236//135 169//135 168//135
f 237//136 169//136 238//136
f 236//137 238//137 169//137
f 235//138 169//138 237//138
f 239//139 168//139 171//139
f 240//140 168//140 239//140
f 241//141 236//141 168//141
f 242//142 241//142 168//142
f 240//143 242//143 168//143
f 243//144 171//144 170//144
f 244//145 239//145 171//145
f 245//146 244//146 171//146
f 246//147 245//147 171//147
f 247//148 246//148 171//148
f 248//149 247//149 171//149
f 249//150 248//150 171//150
f 243//151 249//151 171//151
f 250//152 170//152 172//152
f 250//153 243//153 170//153
f 251//154 172//154 173//154
f 252//155 250//155 172//155
f 253//156 252//156 172//156
f 251//157 253//157 172//157
f 254//158 173//158 174//158
f 255//159 251//159 173//159
f 256//160 255//160 173//160
f 254//161 256//161 173//161
f 257//162 174//162 175//162
f 258//163 174//163 257//163
f 259//164 174//164 258//164
f 260//165 254//165 174//165
f 261//166 260//166 174//166
f 259//167 261//167 174//167
f 262//168 175//168 176//168
f 257//169 175//169 262//169
f 263//170 176//170 177//170
f 264//171 176//171 265//171
f 263//172 265//172 176//172
f 262//173 176//173 264//173
f 266//174 177//174 178//174
f 267//175 263//175 177//175
f 268//176 267//176 177//176
f 266//177 268//177 177//177
f 269//178 178//178 179//178
f 270//179 266//179 178//179
f 271//180 270//180 178//180
f 272//181 271//181 178//181
f 273//182 272//182 178//182
f 269//183 273//183 178//183
f 274//184 179//184 165//184
f 274//185 269//185 179//185
f 275//186 274//186 165//186
f 276//187 275//187 165//187
f 182//188 276//188 165//188
f 139//189 154//189 228//189
f 277//190 228//190 223//190
f 139//189 228//189 277//189
f 278//191 223//191 218//191
f 277//190 223//190 278//190
f 279//192 218//192 214//192
f 278//191 218//191 279//191
f 280//193 214//193 217//193
f 279//192 214//192 280//192
f 281//194 217//194 207//194
f 280//193 217//193 281//193
f 282//195 207//195 202//195
f 281//194 207//194 282//194
f 283//196 202//196 197//196
f 282//195 202//195 283//195
f 284//197 197//197 194//197
f 283//196 197//196 284//196
f 285//198 194//198 167//198
f 284//197 194//197 285//197
f 285//198 167//198 152//198
f 286//86 78//86 77//86
f 97//86 77//86 81//86
f 287//86 77//86 97//86
f 286//86 77//86 287//86
f 288//86 96//86 78//86
f 286//86 288//86 78//86
f 288//86 95//86 96//86
f 288//86 94//86 95//86
f 288//86 93//86 94//86
f 288//86 92//86 93//86
f 105//86 91//86 92//86
f 104//86 105//86 92//86
f 288//86 104//86 92//86
f 106//86 90//86 91//86
f 105//86 106//86 91//86
f 107//86 87//86 90//86
f 106//86 107//86 90//86
f 108//86 84//86 87//86
f 107//86 108//86 87//86
f 98//86 81//86 84//86
f 108//86 98//86 84//86
f 98//86 97//86 81//86
f 287//86 97//86 99//86
f 289//86 103//86 104//86
f 288//86 289//86 104//86
f 287//86 102//86 103//86
f 289//86 287//86 103//86
f 287//86 101//86 102//86
f 287//86 100//86 101//86
f 287//86 99//86 100//86
f 290//86 110//86 109//86
f 291//86 109//86 111//86
f 292//86 290//86 109//86
f 291//86 292//86 109//86
f 286//86 120//86 110//86
f 290//86 286//86 110//86
f 286//86 119//86 120//86
f 286//86 118//86 119//86
f 286//86 117//86 118//86
f 286//86 116//86 117//86
f 291//86 115//86 116//86
f 291//86 116//86 286//86
f 291//86 114//86 115//86
f 291//86 113//86 114//86
f 291//86 112//86 113//86
f 291//86 111//86 112//86
f 293//199 287//199 289//199
f 291//86 286//86 287//86
f 294//200 291//200 287//200
f 294//201 287//201 293//201
f 295//86 296//86 289//86
f 297//202 289//202 296//202
f 288//86 295//86 289//86
f 297//203 293//203 289//203
f 295//86 298//86 296//86
f 299//204 296//204 298//204
f 299//205 297//205 296//205
f 300//206 298//206 295//206
f 300//207 299//207 298//207
f 301//208 295//208 288//208
f 301//209 300//209 295//209
f 302//210 288//210 286//210
f 302//211 301//211 288//211
f 303//212 286//212 290//212
f 303//213 302//213 286//213
f 292//86 304//86 290//86
f 305//214 290//214 304//214
f 305//215 303//215 290//215
f 292//86 306//86 304//86
f 307//216 304//216 306//216
f 305//217 304//217 307//217
f 308//218 306//218 292//218
f 307//219 306//219 308//219
f 309//220 292//220 291//220
f 308//221 292//221 309//221
f 309//222 291//222 294//222
f 137//223 11//223 20//223
f 310//224 20//224 24//224
f 310//223 137//223 20//223
f 311//225 24//225 27//225
f 311//224 310//224 24//224
f 312//226 27//226 29//226
f 312//225 311//225 27//225
f 313//227 29//227 30//227
f 313//226 312//226 29//226
f 314//228 30//228 31//228
f 314//227 313//227 30//227
f 315//229 31//229 32//229
f 315//228 314//228 31//228
f 316//230 32//230 33//230
f 316//229 315//229 32//229
f 317//231 33//231 34//231
f 317//230 316//230 33//230
f 318//232 34//232 40//232
f 318//231 317//231 34//231
f 122//232 318//232 40//232
f 152//233 137//233 310//233
f 285//234 310//234 311//234
f 285//233 152//233 310//233
f 284//235 311//235 312//235
f 284//234 285//234 311//234
f 283//236 312//236 313//236
f 283//235 284//235 312//235
f 282//237 313//237 314//237
f 282//236 283//236 313//236
f 281//238 314//238 315//238
f 281//237 282//237 314//237
f 280//239 315//239 316//239
f 280//238 281//238 315//238
f 279//240 316//240 317//240
f 279//239 280//239 316//239
f 278//241 317//241 318//241
f 278//240 279//240 317//240
f 277//242 318//242 122//242
f 277//241 278//241 318//241
f 139//242 277//242 122//242
f 319//86 293//86 297//86
f 320//86 293//86 319//86
f 320//86 294//86 293//86
f 321//86 297//86 299//86
f 322//86 297//86 321//86
f 319//86 297//86 322//86
f 323//86 299//86 300//86
f 321//86 299//86 323//86
f 324//86 300//86 301//86
f 325//86 300//86 324//86
f 323//86 300//86 325//86
f 326//86 301//86 302//86
f 324//86 301//86 326//86
f 327//86 302//86 303//86
f 328//86 302//86 327//86
f 326//86 302//86 328//86
f 327//86 303//86 329//86
f 305//86 329//86 303//86
f 330//243 331//243 332//243
f 325//244 330//244 333//244
f 332//243 333//243 330//243
f 323//245 325//245 333//245
f 334//246 323//246 333//246
f 335//247 334//247 333//247
f 336//248 335//248 333//248
f 336//249 333//249 332//249
f 325//250 331//250 330//250
f 325//251 337//251 331//251
f 338//252 331//252 337//252
f 339//253 331//253 338//253
f 340//253 331//253 339//253
f 332//243 331//243 340//243
f 341//254 342//254 337//254
f 338//252 337//252 342//252
f 325//255 341//255 337//255
f 341//256 343//256 342//256
f 344//243 342//243 343//243
f 345//252 338//252 342//252
f 346//257 345//257 342//257
f 347//257 346//257 342//257
f 344//243 347//243 342//243
f 341//258 348//258 343//258
f 344//243 343//243 348//243
f 349//259 350//259 348//259
f 344//260 348//260 350//260
f 341//261 349//261 348//261
f 351//262 350//262 349//262
f 351//263 344//263 350//263
f 341//264 352//264 349//264
f 353//265 349//265 352//265
f 354//266 355//266 349//266
f 351//267 349//267 355//267
f 353//268 354//268 349//268
f 356//269 357//269 352//269
f 353//270 352//270 357//270
f 341//271 356//271 352//271
f 358//272 359//272 357//272
f 360//273 357//273 359//273
f 356//274 358//274 357//274
f 360//275 353//275 357//275
f 361//276 362//276 359//276
f 363//277 359//277 362//277
f 364//278 361//278 359//278
f 358//279 364//279 359//279
f 363//280 360//280 359//280
f 365//281 362//281 361//281
f 366//282 363//282 362//282
f 367//283 366//283 362//283
f 365//284 367//284 362//284
f 365//285 361//285 364//285
f 368//286 369//286 370//286
f 324//287 368//287 364//287
f 370//286 364//286 368//286
f 358//288 324//288 364//288
f 365//289 364//289 370//289
f 324//290 369//290 368//290
f 324//291 371//291 369//291
f 372//292 369//292 371//292
f 373//293 369//293 372//293
f 374//293 369//293 373//293
f 370//286 369//286 374//286
f 326//294 375//294 371//294
f 372//292 371//292 375//292
f 324//295 326//295 371//295
f 326//296 376//296 375//296
f 377//286 375//286 376//286
f 378//292 372//292 375//292
f 379//297 378//297 375//297
f 380//297 379//297 375//297
f 377//286 380//286 375//286
f 326//298 381//298 376//298
f 377//286 376//286 381//286
f 382//299 383//299 381//299
f 377//300 381//300 383//300
f 326//301 382//301 381//301
f 384//302 383//302 382//302
f 384//303 377//303 383//303
f 326//304 385//304 382//304
f 386//305 382//305 385//305
f 387//306 388//306 382//306
f 384//307 382//307 388//307
f 386//308 387//308 382//308
f 328//309 389//309 385//309
f 386//310 385//310 389//310
f 326//311 328//311 385//311
f 327//312 390//312 389//312
f 391//313 389//313 390//313
f 328//314 327//314 389//314
f 391//315 386//315 389//315
f 392//316 393//316 390//316
f 394//317 390//317 393//317
f 395//318 392//318 390//318
f 327//319 395//319 390//319
f 394//320 391//320 390//320
f 396//321 393//321 392//321
f 397//322 394//322 393//322
f 398//323 397//323 393//323
f 396//324 398//324 393//324
f 396//325 392//325 395//325
f 399//326 400//326 401//326
f 329//327 399//327 395//327
f 401//326 395//326 399//326
f 327//328 329//328 395//328
f 396//329 395//329 401//329
f 329//330 400//330 399//330
f 329//331 402//331 400//331
f 403//332 400//332 402//332
f 404//333 400//333 403//333
f 405//333 400//333 404//333
f 401//326 400//326 405//326
f 406//334 407//334 402//334
f 403//332 402//332 407//332
f 329//331 406//331 402//331
f 408//335 407//335 406//335
f 409//336 407//336 408//336
f 403//332 407//332 409//332
f 408//337 406//337 329//337
f 408//86 329//86 305//86
f 325//86 324//86 358//86
f 341//86 358//86 356//86
f 325//86 358//86 341//86
f 410//338 321//338 323//338
f 334//339 410//339 323//339
f 411//340 322//340 321//340
f 410//341 411//341 321//341
f 412//342 319//342 322//342
f 413//343 412//343 322//343
f 414//344 413//344 322//344
f 415//345 414//345 322//345
f 416//346 415//346 322//346
f 417//343 416//343 322//343
f 418//347 417//347 322//347
f 411//348 418//348 322//348
f 419//349 319//349 412//349
f 420//350 320//350 319//350
f 421//351 420//351 319//351
f 422//352 421//352 319//352
f 419//349 422//349 319//349
f 419//353 412//353 413//353
f 423//326 413//326 414//326
f 423//326 419//326 413//326
f 423//326 414//326 415//326
f 424//332 415//332 416//332
f 425//326 423//326 415//326
f 426//354 425//354 415//354
f 427//354 426//354 415//354
f 424//332 427//332 415//332
f 424//332 416//332 417//332
f 418//355 428//355 417//355
f 424//356 417//356 428//356
f 429//357 428//357 418//357
f 429//358 424//358 428//358
f 430//359 418//359 411//359
f 431//360 418//360 430//360
f 432//361 418//361 431//361
f 429//362 418//362 432//362
f 430//363 411//363 410//363
f 433//364 410//364 334//364
f 430//365 410//365 433//365
f 335//366 434//366 334//366
f 435//367 334//367 434//367
f 433//368 334//368 435//368
f 336//369 434//369 335//369
f 436//370 435//370 434//370
f 437//371 436//371 434//371
f 336//372 437//372 434//372
f 438//373 355//373 354//373
f 351//374 355//374 438//374
f 264//375 354//375 353//375
f 265//376 439//376 354//376
f 438//377 354//377 439//377
f 264//378 265//378 354//378
f 264//379 353//379 360//379
f 262//380 360//380 363//380
f 262//381 264//381 360//381
f 366//382 440//382 363//382
f 257//383 363//383 440//383
f 257//384 262//384 363//384
f 367//385 440//385 366//385
f 441//386 257//386 440//386
f 442//387 441//387 440//387
f 367//388 442//388 440//388
f 265//389 443//389 439//389
f 444//390 439//390 443//390
f 438//391 439//391 444//391
f 444//392 443//392 265//392
f 444//393 265//393 263//393
f 445//394 258//394 257//394
f 441//395 445//395 257//395
f 446//396 258//396 445//396
f 446//397 259//397 258//397
f 442//398 445//398 441//398
f 442//399 446//399 445//399
f 268//400 263//400 267//400
f 447//401 263//401 268//401
f 444//402 263//402 447//402
f 448//403 268//403 266//403
f 449//404 268//404 448//404
f 450//404 268//404 449//404
f 447//401 268//401 450//401
f 448//403 266//403 270//403
f 451//405 270//405 271//405
f 452//406 448//406 270//406
f 453//407 452//407 270//407
f 454//408 453//408 270//408
f 451//401 454//401 270//401
f 451//405 271//405 272//405
f 451//409 272//409 273//409
f 455//410 273//410 269//410
f 451//411 273//411 455//411
f 435//412 269//412 274//412
f 456//413 455//413 269//413
f 457//414 456//414 269//414
f 435//415 457//415 269//415
f 433//416 274//416 275//416
f 433//417 435//417 274//417
f 431//418 275//418 276//418
f 430//419 433//419 275//419
f 431//420 430//420 275//420
f 458//421 276//421 182//421
f 459//422 431//422 276//422
f 460//423 459//423 276//423
f 458//424 460//424 276//424
f 184//425 182//425 183//425
f 461//426 182//426 184//426
f 458//427 182//427 461//427
f 462//428 184//428 185//428
f 463//429 184//429 462//429
f 464//430 184//430 463//430
f 461//426 184//426 464//426
f 181//431 188//431 185//431
f 462//428 185//428 188//428
f 462//428 188//428 189//428
f 240//432 239//432 244//432
f 465//433 244//433 245//433
f 465//433 240//433 244//433
f 465//434 245//434 246//434
f 466//435 246//435 247//435
f 467//433 465//433 246//433
f 468//436 467//436 246//436
f 469//436 468//436 246//436
f 466//435 469//435 246//435
f 466//435 247//435 248//435
f 466//437 248//437 249//437
f 470//438 249//438 243//438
f 466//439 249//439 470//439
f 394//440 243//440 250//440
f 471//441 243//441 394//441
f 472//442 243//442 471//442
f 472//443 470//443 243//443
f 391//444 250//444 252//444
f 394//445 250//445 391//445
f 387//446 252//446 253//446
f 386//447 252//447 387//447
f 391//448 252//448 386//448
f 473//449 253//449 251//449
f 474//450 387//450 253//450
f 475//451 474//451 253//451
f 473//452 475//452 253//452
f 256//453 251//453 255//453
f 476//454 251//454 256//454
f 473//455 251//455 476//455
f 477//456 256//456 254//456
f 478//457 256//457 477//457
f 479//458 256//458 478//458
f 476//459 256//459 479//459
f 477//460 254//460 260//460
f 446//461 260//461 261//461
f 480//456 477//456 260//456
f 481//462 480//462 260//462
f 482//462 481//462 260//462
f 446//459 482//459 260//459
f 446//459 261//459 259//459
f 483//463 455//463 456//463
f 483//464 451//464 455//464
f 483//465 456//465 457//465
f 436//466 457//466 435//466
f 437//467 457//467 436//467
f 437//468 483//468 457//468
f 484//469 431//469 459//469
f 484//470 432//470 431//470
f 458//471 459//471 460//471
f 484//472 459//472 458//472
f 429//473 432//473 484//473
f 485//474 388//474 387//474
f 384//475 388//475 485//475
f 485//476 387//476 474//476
f 397//477 471//477 394//477
f 398//478 471//478 397//478
f 486//479 472//479 471//479
f 398//480 486//480 471//480
f 473//481 474//481 475//481
f 485//482 474//482 473//482
f 486//483 470//483 472//483
f 486//484 466//484 470//484
f 487//86 309//86 294//86
f 488//86 487//86 294//86
f 320//86 488//86 294//86
f 489//86 308//86 309//86
f 487//86 489//86 309//86
f 490//86 307//86 308//86
f 491//86 490//86 308//86
f 489//86 491//86 308//86
f 492//86 305//86 307//86
f 490//86 492//86 307//86
f 492//86 408//86 305//86
f 493//485 408//485 492//485
f 494//486 495//486 408//486
f 409//487 408//487 495//487
f 496//335 494//335 408//335
f 497//488 496//488 408//488
f 493//489 497//489 408//489
f 498//490 492//490 490//490
f 498//491 493//491 492//491
f 499//492 490//492 491//492
f 500//493 498//493 490//493
f 499//494 500//494 490//494
f 501//86 502//86 491//86
f 503//495 491//495 502//495
f 489//86 501//86 491//86
f 504//496 499//496 491//496
f 505//497 504//497 491//497
f 503//498 505//498 491//498
f 501//86 506//86 502//86
f 507//499 502//499 506//499
f 508//500 503//500 502//500
f 509//501 508//501 502//501
f 510//502 509//502 502//502
f 511//503 510//503 502//503
f 507//504 511//504 502//504
f 512//505 506//505 501//505
f 512//506 507//506 506//506
f 513//507 501//507 489//507
f 514//508 512//508 501//508
f 513//509 514//509 501//509
f 515//510 489//510 487//510
f 516//511 513//511 489//511
f 517//512 516//512 489//512
f 515//513 517//513 489//513
f 518//514 487//514 488//514
f 519//515 515//515 487//515
f 520//516 519//516 487//516
f 521//517 520//517 487//517
f 522//518 521//518 487//518
f 518//519 522//519 487//519
f 523//520 488//520 320//520
f 523//521 518//521 488//521
f 524//522 523//522 320//522
f 420//523 524//523 320//523
f 525//326 495//326 494//326
f 403//332 409//332 495//332
f 526//332 403//332 495//332
f 527//524 526//524 495//524
f 528//524 527//524 495//524
f 525//326 528//326 495//326
f 525//326 494//326 496//326
f 497//525 529//525 496//525
f 525//526 496//526 529//526
f 530//527 529//527 497//527
f 530//528 525//528 529//528
f 531//529 497//529 493//529
f 532//530 533//530 497//530
f 530//531 497//531 533//531
f 531//532 532//532 497//532
f 531//533 493//533 498//533
f 534//534 498//534 500//534
f 534//535 531//535 498//535
f 535//536 536//536 500//536
f 537//537 500//537 536//537
f 499//538 535//538 500//538
f 537//539 534//539 500//539
f 538//540 536//540 535//540
f 539//541 537//541 536//541
f 540//542 539//542 536//542
f 538//543 540//543 536//543
f 538//544 535//544 499//544
f 504//252 505//252 541//252
f 541//252 499//252 504//252
f 538//545 499//545 541//545
f 542//243 505//243 503//243
f 543//546 505//546 542//546
f 544//546 505//546 543//546
f 541//252 505//252 544//252
f 542//243 503//243 508//243
f 545//252 508//252 509//252
f 546//243 542//243 508//243
f 547//547 546//547 508//547
f 548//547 547//547 508//547
f 545//252 548//252 508//252
f 545//252 509//252 510//252
f 511//548 549//548 510//548
f 545//549 510//549 549//549
f 550//550 549//550 511//550
f 550//551 545//551 549//551
f 551//552 511//552 507//552
f 552//553 553//553 511//553
f 550//554 511//554 553//554
f 551//555 552//555 511//555
f 551//556 507//556 512//556
f 554//557 512//557 514//557
f 554//558 551//558 512//558
f 555//559 556//559 514//559
f 557//560 514//560 556//560
f 513//561 555//561 514//561
f 557//562 554//562 514//562
f 558//563 556//563 555//563
f 559//564 557//564 556//564
f 560//565 559//565 556//565
f 558//566 560//566 556//566
f 558//567 555//567 513//567
f 516//292 517//292 561//292
f 561//292 513//292 516//292
f 558//568 513//568 561//568
f 562//286 517//286 515//286
f 563//569 517//569 562//569
f 564//569 517//569 563//569
f 561//292 517//292 564//292
f 562//286 515//286 519//286
f 565//292 519//292 520//292
f 566//286 562//286 519//286
f 567//570 566//570 519//570
f 568//570 567//570 519//570
f 565//292 568//292 519//292
f 565//292 520//292 521//292
f 522//571 569//571 521//571
f 565//572 521//572 569//572
f 570//573 569//573 522//573
f 570//574 565//574 569//574
f 571//575 522//575 518//575
f 572//576 522//576 571//576
f 573//577 522//577 572//577
f 570//578 522//578 573//578
f 571//579 518//579 523//579
f 574//580 523//580 524//580
f 571//581 523//581 574//581
f 575//582 576//582 524//582
f 577//583 524//583 576//583
f 420//584 575//584 524//584
f 574//585 524//585 577//585
f 578//586 576//586 575//586
f 579//587 577//587 576//587
f 580//588 579//588 576//588
f 578//589 580//589 576//589
f 578//590 575//590 420//590
f 421//332 422//332 581//332
f 581//332 420//332 421//332
f 578//591 420//591 581//591
f 423//326 422//326 419//326
f 582//592 422//592 423//592
f 583//592 422//592 582//592
f 581//332 422//332 583//332
f 584//593 533//593 532//593
f 530//594 533//594 584//594
f 237//595 532//595 531//595
f 238//596 585//596 532//596
f 584//597 532//597 585//597
f 237//598 238//598 532//598
f 237//599 531//599 534//599
f 235//600 534//600 537//600
f 235//601 237//601 534//601
f 539//602 586//602 537//602
f 230//603 537//603 586//603
f 230//604 235//604 537//604
f 540//605 586//605 539//605
f 587//606 230//606 586//606
f 588//607 587//607 586//607
f 540//608 588//608 586//608
f 238//609 589//609 585//609
f 590//610 585//610 589//610
f 584//611 585//611 590//611
f 590//612 589//612 238//612
f 590//613 238//613 236//613
f 591//614 231//614 230//614
f 587//615 591//615 230//615
f 592//616 231//616 591//616
f 592//617 232//617 231//617
f 588//618 591//618 587//618
f 588//619 592//619 591//619
f 242//620 236//620 241//620
f 593//435 236//435 242//435
f 590//621 236//621 593//621
f 465//433 242//433 240//433
f 594//622 242//622 465//622
f 595//623 242//623 594//623
f 593//435 242//435 595//435
f 462//624 189//624 190//624
f 596//426 190//426 191//426
f 597//428 462//428 190//428
f 598//625 597//625 190//625
f 599//625 598//625 190//625
f 596//426 599//426 190//426
f 596//426 191//426 192//426
f 596//626 192//626 193//626
f 600//627 193//627 187//627
f 596//628 193//628 600//628
f 577//629 187//629 196//629
f 601//630 600//630 187//630
f 602//631 601//631 187//631
f 577//632 602//632 187//632
f 574//633 196//633 200//633
f 574//634 577//634 196//634
f 572//635 200//635 201//635
f 571//636 574//636 200//636
f 572//637 571//637 200//637
f 603//638 201//638 199//638
f 604//639 572//639 201//639
f 605//640 604//640 201//640
f 603//641 605//641 201//641
f 206//642 199//642 205//642
f 606//643 199//643 206//643
f 603//644 199//644 606//644
f 607//645 206//645 204//645
f 608//646 206//646 607//646
f 609//647 206//647 608//647
f 606//648 206//648 609//648
f 607//649 204//649 210//649
f 610//650 210//650 211//650
f 611//645 607//645 210//645
f 612//651 611//651 210//651
f 613//651 612//651 210//651
f 610//648 613//648 210//648
f 610//648 211//648 212//648
f 610//652 212//652 213//652
f 614//653 213//653 209//653
f 610//654 213//654 614//654
f 557//655 209//655 216//655
f 615//656 209//656 557//656
f 616//657 209//657 615//657
f 616//658 614//658 209//658
f 554//659 216//659 221//659
f 557//660 216//660 554//660
f 552//661 221//661 222//661
f 551//662 221//662 552//662
f 554//663 221//663 551//663
f 617//664 222//664 220//664
f 618//665 552//665 222//665
f 619//665 618//665 222//665
f 617//666 619//666 222//666
f 227//667 220//667 226//667
f 620//668 220//668 227//668
f 617//669 220//669 620//669
f 621//670 227//670 225//670
f 622//671 227//671 621//671
f 623//671 227//671 622//671
f 620//668 227//668 623//668
f 621//670 225//670 233//670
f 592//672 233//672 234//672
f 624//673 621//673 233//673
f 625//674 624//674 233//674
f 626//675 625//675 233//675
f 592//668 626//668 233//668
f 592//672 234//672 232//672
f 627//676 600//676 601//676
f 627//677 596//677 600//677
f 627//678 601//678 602//678
f 579//679 602//679 577//679
f 580//680 602//680 579//680
f 580//681 627//681 602//681
f 628//682 572//682 604//682
f 628//683 573//683 572//683
f 603//684 604//684 605//684
f 628//685 604//685 603//685
f 570//686 573//686 628//686
f 629//687 553//687 552//687
f 550//688 553//688 629//688
f 629//689 552//689 618//689
f 559//690 615//690 557//690
f 560//691 615//691 559//691
f 630//692 616//692 615//692
f 560//693 630//693 615//693
f 617//694 618//694 619//694
f 629//695 618//695 617//695
f 630//696 614//696 616//696
f 630//697 610//697 614//697
f 631//698 423//698 425//698
f 631//698 582//698 423//698
f 426//354 631//354 425//354
f 632//699 462//699 597//699
f 463//699 462//699 632//699
f 598//625 632//625 597//625
f 633//700 634//700 582//700
f 635//701 582//701 634//701
f 631//700 633//700 582//700
f 635//592 583//592 582//592
f 463//702 632//702 634//702
f 636//703 634//703 632//703
f 633//702 463//702 634//702
f 636//701 635//701 634//701
f 598//703 636//703 632//703
f 637//704 463//704 633//704
f 637//430 464//430 463//430
f 638//705 633//705 631//705
f 638//704 637//704 633//704
f 426//705 638//705 631//705
f 427//706 583//706 635//706
f 581//332 583//332 427//332
f 426//707 635//707 636//707
f 427//706 635//706 426//706
f 638//708 636//708 598//708
f 426//707 636//707 638//707
f 637//709 598//709 599//709
f 638//708 598//708 637//708
f 637//709 599//709 464//709
f 461//426 464//426 599//426
f 596//426 461//426 599//426
f 424//332 581//332 427//332
f 639//710 338//710 345//710
f 639//710 339//710 338//710
f 346//257 639//257 345//257
f 640//711 448//711 452//711
f 449//711 448//711 640//711
f 453//408 640//408 452//408
f 641//712 642//712 339//712
f 643//713 339//713 642//713
f 639//712 641//712 339//712
f 643//253 340//253 339//253
f 449//714 640//714 642//714
f 644//715 642//715 640//715
f 641//714 449//714 642//714
f 644//713 643//713 642//713
f 453//715 644//715 640//715
f 645//716 449//716 641//716
f 645//404 450//404 449//404
f 646//717 641//717 639//717
f 646//716 645//716 641//716
f 346//717 646//717 639//717
f 347//718 340//718 643//718
f 332//243 340//243 347//243
f 346//719 643//719 644//719
f 347//718 643//718 346//718
f 646//720 644//720 453//720
f 346//719 644//719 646//719
f 645//721 453//721 454//721
f 646//720 453//720 645//720
f 645//721 454//721 450//721
f 447//401 450//401 454//401
f 451//401 447//401 454//401
f 344//243 332//243 347//243
f 647//722 372//722 378//722
f 647//722 373//722 372//722
f 379//297 647//297 378//297
f 648//723 477//723 480//723
f 478//723 477//723 648//723
f 481//462 648//462 480//462
f 649//724 650//724 373//724
f 651//725 373//725 650//725
f 647//724 649//724 373//724
f 651//293 374//293 373//293
f 478//726 648//726 650//726
f 652//727 650//727 648//727
f 649//726 478//726 650//726
f 652//725 651//725 650//725
f 481//727 652//727 648//727
f 653//728 478//728 649//728
f 653//457 479//457 478//457
f 654//729 649//729 647//729
f 654//728 653//728 649//728
f 379//729 654//729 647//729
f 380//730 374//730 651//730
f 370//286 374//286 380//286
f 379//731 651//731 652//731
f 380//730 651//730 379//730
f 654//732 652//732 481//732
f 379//731 652//731 654//731
f 653//733 481//733 482//733
f 654//732 481//732 653//732
f 653//733 482//733 479//733
f 476//459 479//459 482//459
f 446//459 476//459 482//459
f 377//286 370//286 380//286
f 655//734 403//734 526//734
f 655//734 404//734 403//734
f 527//524 655//524 526//524
f 656//735 465//735 467//735
f 594//735 465//735 656//735
f 468//436 656//436 467//436
f 657//736 658//736 404//736
f 659//737 404//737 658//737
f 655//736 657//736 404//736
f 659//333 405//333 404//333
f 594//738 656//738 658//738
f 660//739 658//739 656//739
f 657//738 594//738 658//738
f 660//737 659//737 658//737
f 468//739 660//739 656//739
f 661//740 594//740 657//740
f 661//623 595//623 594//623
f 662//741 657//741 655//741
f 662//740 661//740 657//740
f 527//741 662//741 655//741
f 528//742 405//742 659//742
f 401//326 405//326 528//326
f 527//743 659//743 660//743
f 528//742 659//742 527//742
f 662//744 660//744 468//744
f 527//743 660//743 662//743
f 661//745 468//745 469//745
f 662//744 468//744 661//744
f 661//745 469//745 595//745
f 593//435 595//435 469//435
f 466//435 593//435 469//435
f 525//326 401//326 528//326
f 663//746 542//746 546//746
f 663//746 543//746 542//746
f 547//547 663//547 546//547
f 664//747 621//747 624//747
f 622//747 621//747 664//747
f 625//675 664//675 624//675
f 665//748 666//748 543//748
f 667//749 543//749 666//749
f 663//748 665//748 543//748
f 667//546 544//546 543//546
f 622//750 664//750 666//750
f 668//751 666//751 664//751
f 665//750 622//750 666//750
f 668//749 667//749 666//749
f 625//751 668//751 664//751
f 669//752 622//752 665//752
f 669//671 623//671 622//671
f 670//753 665//753 663//753
f 670//752 669//752 665//752
f 547//753 670//753 663//753
f 548//754 544//754 667//754
f 541//252 544//252 548//252
f 547//755 667//755 668//755
f 548//754 667//754 547//754
f 670//756 668//756 625//756
f 547//755 668//755 670//755
f 669//757 625//757 626//757
f 670//756 625//756 669//756
f 669//757 626//757 623//757
f 620//668 623//668 626//668
f 592//668 620//668 626//668
f 545//252 541//252 548//252
f 671//758 562//758 566//758
f 671//758 563//758 562//758
f 567//570 671//570 566//570
f 672//759 607//759 611//759
f 608//759 607//759 672//759
f 612//651 672//651 611//651
f 673//760 674//760 563//760
f 675//761 563//761 674//761
f 671//760 673//760 563//760
f 675//569 564//569 563//569
f 608//762 672//762 674//762
f 676//763 674//763 672//763
f 673//762 608//762 674//762
f 676//761 675//761 674//761
f 612//763 676//763 672//763
f 677//764 608//764 673//764
f 677//646 609//646 608//646
f 678//765 673//765 671//765
f 678//764 677//764 673//764
f 567//765 678//765 671//765
f 568//766 564//766 675//766
f 561//292 564//292 568//292
f 567//767 675//767 676//767
f 568//766 675//766 567//766
f 678//768 676//768 612//768
f 567//767 676//767 678//767
f 677//769 612//769 613//769
f 678//768 612//768 677//768
f 677//769 613//769 609//769
f 606//648 609//648 613//648
f 610//648 606//648 613//648
f 565//292 561//292 568//292
f 429//698 581//698 424//698
f 429//698 578//698 581//698
f 627//699 461//699 596//699
f 458//699 461//699 627//699
f 458//702 627//702 580//702
f 484//700 580//700 578//700
f 484//702 458//702 580//702
f 429//700 484//700 578//700
f 351//710 332//710 344//710
f 351//710 336//710 332//710
f 483//711 447//711 451//711
f 444//711 447//711 483//711
f 444//714 483//714 437//714
f 438//712 437//712 336//712
f 438//714 444//714 437//714
f 351//712 438//712 336//712
f 384//722 370//722 377//722
f 384//722 365//722 370//722
f 442//723 476//723 446//723
f 473//723 476//723 442//723
f 473//726 442//726 367//726
f 485//724 367//724 365//724
f 485//726 473//726 367//726
f 384//724 485//724 365//724
f 530//734 401//734 525//734
f 530//734 396//734 401//734
f 486//735 593//735 466//735
f 590//735 593//735 486//735
f 590//738 486//738 398//738
f 584//736 398//736 396//736
f 584//738 590//738 398//738
f 530//736 584//736 396//736
f 550//746 541//746 545//746
f 550//746 538//746 541//746
f 588//747 620//747 592//747
f 617//747 620//747 588//747
f 617//750 588//750 540//750
f 629//748 540//748 538//748
f 629//750 617//750 540//750
f 550//748 629//748 538//748
f 570//758 561//758 565//758
f 570//758 558//758 561//758
f 630//759 606//759 610//759
f 603//759 606//759 630//759
f 603//762 630//762 560//762
f 628//760 560//760 558//760
f 628//762 603//762 560//762
f 570//760 628//760 558//760
f 111//1 679//1 680//1
f 681//770 680//770 679//770
f 682//1 683//1 680//1
f 116//1 680//1 683//1
f 97//1 682//1 680//1
f 99//1 680//1 684//1
f 685//771 684//771 680//771
f 99//1 97//1 680//1
f 112//1 111//1 680//1
f 113//1 112//1 680//1
f 114//1 113//1 680//1
f 115//1 114//1 680//1
f 116//1 115//1 680//1
f 681//772 685//772 680//772
f 686//1 687//1 679//1
f 688//773 679//773 687//773
f 109//1 686//1 679//1
f 111//1 109//1 679//1
f 689//774 681//774 679//774
f 689//775 679//775 688//775
f 686//1 690//1 687//1
f 691//776 687//776 690//776
f 692//777 687//777 691//777
f 688//778 687//778 692//778
f 693//779 690//779 686//779
f 691//780 690//780 693//780
f 109//1 683//1 686//1
f 694//781 686//781 683//781
f 695//782 686//782 694//782
f 693//783 686//783 695//783
f 696//784 683//784 682//784
f 110//1 683//1 109//1
f 117//1 116//1 683//1
f 118//1 117//1 683//1
f 119//1 118//1 683//1
f 120//1 119//1 683//1
f 110//1 120//1 683//1
f 697//785 683//785 696//785
f 694//781 683//781 697//781
f 93//1 698//1 682//1
f 699//786 682//786 698//786
f 78//1 682//1 77//1
f 97//1 77//1 682//1
f 94//1 93//1 682//1
f 95//1 94//1 682//1
f 96//1 95//1 682//1
f 78//1 96//1 682//1
f 696//787 682//787 699//787
f 700//1 701//1 698//1
f 702//788 698//788 701//788
f 684//1 700//1 698//1
f 92//1 684//1 698//1
f 93//1 92//1 698//1
f 703//789 699//789 698//789
f 702//790 703//790 698//790
f 700//1 704//1 701//1
f 705//791 701//791 704//791
f 706//792 702//792 701//792
f 705//793 706//793 701//793
f 707//794 704//794 700//794
f 707//795 705//795 704//795
f 708//796 700//796 684//796
f 709//797 707//797 700//797
f 708//798 709//798 700//798
f 104//1 684//1 92//1
f 100//1 99//1 684//1
f 101//1 100//1 684//1
f 102//1 101//1 684//1
f 103//1 102//1 684//1
f 104//1 103//1 684//1
f 710//796 708//796 684//796
f 685//799 710//799 684//799
f 98//1 81//1 77//1
f 711//32 77//32 81//32
f 712//33 78//33 77//33
f 98//1 77//1 97//1
f 712//33 77//33 711//33
f 108//1 84//1 81//1
f 713//34 81//34 84//34
f 98//1 108//1 81//1
f 713//32 711//32 81//32
f 107//1 87//1 84//1
f 714//35 84//35 87//35
f 108//1 107//1 84//1
f 713//34 84//34 714//34
f 106//1 90//1 87//1
f 715//36 87//36 90//36
f 107//1 106//1 87//1
f 714//35 87//35 715//35
f 105//1 91//1 90//1
f 716//37 90//37 91//37
f 106//1 105//1 90//1
f 715//36 90//36 716//36
f 104//1 92//1 91//1
f 717//38 91//38 92//38
f 105//1 104//1 91//1
f 716//37 91//37 717//37
f 718//39 92//39 93//39
f 717//38 92//38 718//38
f 719//40 93//40 94//40
f 718//39 93//39 719//39
f 720//41 94//41 95//41
f 719//40 94//40 720//40
f 721//42 95//42 96//42
f 720//41 95//41 721//41
f 722//43 96//43 78//43
f 721//42 96//42 722//42
f 722//43 78//43 712//43
f 723//32 97//32 99//32
f 724//33 98//33 97//33
f 724//33 97//33 723//33
f 725//34 99//34 100//34
f 725//32 723//32 99//32
f 726//35 100//35 101//35
f 725//34 100//34 726//34
f 727//36 101//36 102//36
f 726//35 101//35 727//35
f 728//37 102//37 103//37
f 727//36 102//36 728//36
f 729//38 103//38 104//38
f 728//37 103//37 729//37
f 730//39 104//39 105//39
f 729//38 104//38 730//38
f 731//40 105//40 106//40
f 730//39 105//39 731//39
f 732//41 106//41 107//41
f 731//40 106//40 732//40
f 733//42 107//42 108//42
f 732//41 107//41 733//41
f 734//43 108//43 98//43
f 733//42 108//42 734//42
f 734//43 98//43 724//43
f 735//32 109//32 111//32
f 736//33 110//33 109//33
f 736//33 109//33 735//33
f 737//34 111//34 112//34
f 737//32 735//32 111//32
f 738//35 112//35 113//35
f 737//34 112//34 738//34
f 739//36 113//36 114//36
f 738//35 113//35 739//35
f 740//37 114//37 115//37
f 739//36 114//36 740//36
f 741//38 115//38 116//38
f 740//37 115//37 741//37
f 742//39 116//39 117//39
f 741//38 116//38 742//38
f 743//40 117//40 118//40
f 742//39 117//39 743//39
f 744//41 118//41 119//41
f 743//40 118//40 744//40
f 745//42 119//42 120//42
f 744//41 119//41 745//41
f 746//43 120//43 110//43
f 745//42 120//42 746//42
f 746//43 110//43 736//43
f 747//86 699//86 703//86
f 748//86 696//86 699//86
f 749//86 748//86 699//86
f 747//86 749//86 699//86
f 721//86 703//86 702//86
f 750//86 747//86 703//86
f 711//86 750//86 703//86
f 712//86 711//86 703//86
f 722//86 712//86 703//86
f 721//86 722//86 703//86
f 710//86 702//86 706//86
f 730//86 702//86 710//86
f 720//86 721//86 702//86
f 719//86 720//86 702//86
f 718//86 719//86 702//86
f 730//86 718//86 702//86
f 708//86 706//86 705//86
f 710//86 706//86 708//86
f 709//86 705//86 707//86
f 708//86 705//86 709//86
f 729//86 710//86 685//86
f 729//86 730//86 710//86
f 726//86 685//86 681//86
f 728//86 729//86 685//86
f 727//86 728//86 685//86
f 726//86 727//86 685//86
f 751//86 681//86 689//86
f 752//86 681//86 751//86
f 723//86 681//86 752//86
f 725//86 681//86 723//86
f 725//86 726//86 681//86
f 742//86 697//86 696//86
f 753//86 754//86 696//86
f 742//86 696//86 754//86
f 748//86 753//86 696//86
f 746//86 694//86 697//86
f 745//86 746//86 697//86
f 744//86 745//86 697//86
f 743//86 744//86 697//86
f 742//86 743//86 697//86
f 691//86 695//86 694//86
f 735//86 691//86 694//86
f 736//86 735//86 694//86
f 746//86 736//86 694//86
f 691//86 693//86 695//86
f 737//86 692//86 691//86
f 737//86 691//86 735//86
f 741//86 688//86 692//86
f 740//86 741//86 692//86
f 739//86 740//86 692//86
f 738//86 739//86 692//86
f 737//86 738//86 692//86
f 755//86 689//86 688//86
f 754//86 755//86 688//86
f 742//86 754//86 688//86
f 741//86 742//86 688//86
f 756//86 751//86 689//86
f 757//86 756//86 689//86
f 755//86 757//86 689//86
f 758//800 751//800 756//800
f 759//801 752//801 751//801
f 758//802 759//802 751//802
f 760//803 756//803 757//803
f 760//804 758//804 756//804
f 761//805 757//805 755//805
f 761//806 760//806 757//806
f 761//807 755//807 754//807
f 762//808 754//808 753//808
f 762//809 761//809 754//809
f 763//810 753//810 748//810
f 763//811 762//811 753//811
f 764//812 748//812 749//812
f 764//813 763//813 748//813
f 764//814 749//814 747//814
f 765//815 747//815 750//815
f 764//816 747//816 765//816
f 714//86 766//86 750//86
f 767//817 750//817 766//817
f 713//86 750//86 711//86
f 713//86 714//86 750//86
f 767//818 765//818 750//818
f 715//86 768//86 766//86
f 769//819 766//819 768//819
f 714//86 715//86 766//86
f 769//820 767//820 766//820
f 716//86 770//86 768//86
f 769//821 768//821 770//821
f 715//86 716//86 768//86
f 732//86 771//86 770//86
f 772//822 770//822 771//822
f 716//86 717//86 770//86
f 732//86 770//86 717//86
f 772//823 769//823 770//823
f 733//86 773//86 771//86
f 774//824 771//824 773//824
f 732//86 733//86 771//86
f 774//825 772//825 771//825
f 723//86 752//86 773//86
f 759//826 773//826 752//826
f 724//86 723//86 773//86
f 734//86 724//86 773//86
f 733//86 734//86 773//86
f 759//827 774//827 773//827
f 731//86 717//86 718//86
f 730//86 731//86 718//86
f 731//86 732//86 717//86
f 775//828 765//828 767//828
f 776//829 765//829 775//829
f 776//830 764//830 765//830
f 777//831 767//831 769//831
f 778//832 767//832 777//832
f 775//833 767//833 778//833
f 779//834 769//834 772//834
f 777//831 769//831 779//831
f 780//835 772//835 774//835
f 779//834 772//834 780//834
f 781//836 774//836 759//836
f 780//835 774//835 781//835
f 782//837 759//837 758//837
f 781//836 759//836 782//836
f 783//838 782//838 758//838
f 760//839 783//839 758//839
f 782//840 784//840 785//840
f 786//841 785//841 784//841
f 781//842 782//842 785//842
f 780//843 781//843 785//843
f 779//844 780//844 785//844
f 777//845 779//845 785//845
f 778//846 777//846 785//846
f 776//847 778//847 785//847
f 787//848 776//848 785//848
f 788//849 787//849 785//849
f 789//850 788//850 785//850
f 786//851 789//851 785//851
f 783//852 784//852 782//852
f 760//853 784//853 783//853
f 786//854 784//854 760//854
f 776//855 775//855 778//855
f 786//856 760//856 761//856
f 789//857 761//857 762//857
f 786//856 761//856 789//856
f 788//858 762//858 763//858
f 789//857 762//857 788//857
f 787//859 763//859 764//859
f 788//858 763//858 787//858
f 787//859 764//859 776//859
f 583//332 423//332 425//332
f 582//706 425//706 423//706
f 427//332 583//332 425//332
f 631//860 427//860 425//860
f 582//706 631//706 425//706
f 635//591 423//591 583//591
f 635//591 582//591 423//591
f 426//698 583//698 427//698
f 426//698 635//698 583//698
f 426//860 427//860 631//860
f 597//426 464//426 462//426
f 637//427 462//427 464//427
f 463//709 597//709 462//709
f 637//427 463//427 462//427
f 597//426 599//426 464//426
f 598//699 464//699 599//699
f 637//699 464//699 598//699
f 632//861 599//861 597//861
f 598//861 599//861 632//861
f 632//709 597//709 463//709
f 634//707 633//707 631//707
f 426//862 631//862 633//862
f 582//707 634//707 631//707
f 632//708 463//708 633//708
f 638//863 633//863 463//863
f 634//708 632//708 633//708
f 426//862 633//862 638//862
f 638//863 463//863 637//863
f 598//864 632//864 634//864
f 636//865 634//865 582//865
f 636//864 598//864 634//864
f 635//865 636//865 582//865
f 637//702 598//702 636//702
f 638//700 636//700 635//700
f 638//702 637//702 636//702
f 426//700 638//700 635//700
f 340//243 338//243 345//243
f 339//718 345//718 338//718
f 347//243 340//243 345//243
f 639//866 347//866 345//866
f 339//718 639//718 345//718
f 643//249 338//249 340//249
f 643//249 339//249 338//249
f 346//710 340//710 347//710
f 346//710 643//710 340//710
f 346//866 347//866 639//866
f 452//401 450//401 448//401
f 645//402 448//402 450//402
f 449//721 452//721 448//721
f 645//402 449//402 448//402
f 452//401 454//401 450//401
f 453//711 450//711 454//711
f 645//711 450//711 453//711
f 640//867 454//867 452//867
f 453//867 454//867 640//867
f 640//721 452//721 449//721
f 642//719 641//719 639//719
f 346//868 639//868 641//868
f 339//719 642//719 639//719
f 640//720 449//720 641//720
f 646//869 641//869 449//869
f 642//720 640//720 641//720
f 346//868 641//868 646//868
f 646//869 449//869 645//869
f 453//870 640//870 642//870
f 644//871 642//871 339//871
f 644//870 453//870 642//870
f 643//871 644//871 339//871
f 645//714 453//714 644//714
f 646//712 644//712 643//712
f 646//714 645//714 644//714
f 346//712 646//712 643//712
f 374//286 372//286 378//286
f 373//730 378//730 372//730
f 380//286 374//286 378//286
f 647//872 380//872 378//872
f 373//730 647//730 378//730
f 651//289 372//289 374//289
f 651//289 373//289 372//289
f 379//722 374//722 380//722
f 379//722 651//722 374//722
f 379//872 380//872 647//872
f 480//459 479//459 477//459
f 653//455 477//455 479//455
f 478//733 480//733 477//733
f 653//873 478//873 477//873
f 480//459 482//459 479//459
f 481//723 479//723 482//723
f 653//723 479//723 481//723
f 648//874 482//874 480//874
f 481//874 482//874 648//874
f 648//733 480//733 478//733
f 650//731 649//731 647//731
f 379//875 647//875 649//875
f 373//731 650//731 647//731
f 648//732 478//732 649//732
f 654//876 649//876 478//876
f 650//732 648//732 649//732
f 379//875 649//875 654//875
f 654//876 478//876 653//876
f 481//877 648//877 650//877
f 652//878 650//878 373//878
f 652//877 481//877 650//877
f 651//878 652//878 373//878
f 653//726 481//726 652//726
f 654//724 652//724 651//724
f 654//726 653//726 652//726
f 379//724 654//724 651//724
f 405//326 403//326 526//326
f 404//742 526//742 403//742
f 528//326 405//326 526//326
f 655//879 528//879 526//879
f 404//742 655//742 526//742
f 659//329 403//329 405//329
f 659//329 404//329 403//329
f 527//734 405//734 528//734
f 527//734 659//734 405//734
f 527//879 528//879 655//879
f 467//435 595//435 465//435
f 661//621 465//621 595//621
f 594//745 467//745 465//745
f 661//621 594//621 465//621
f 467//435 469//435 595//435
f 468//735 595//735 469//735
f 661//735 595//735 468//735
f 656//880 469//880 467//880
f 468//880 469//880 656//880
f 656//745 467//745 594//745
f 658//743 657//743 655//743
f 527//881 655//881 657//881
f 404//743 658//743 655//743
f 656//744 594//744 657//744
f 662//882 657//882 594//882
f 658//744 656//744 657//744
f 527//881 657//881 662//881
f 662//882 594//882 661//882
f 468//883 656//883 658//883
f 660//884 658//884 404//884
f 660//883 468//883 658//883
f 659//884 660//884 404//884
f 661//738 468//738 660//738
f 662//736 660//736 659//736
f 662//738 661//738 660//738
f 527//736 662//736 659//736
f 544//252 542//252 546//252
f 543//754 546//754 542//754
f 548//252 544//252 546//252
f 663//885 548//885 546//885
f 543//754 663//754 546//754
f 667//545 542//545 544//545
f 667//545 543//545 542//545
f 547//746 544//746 548//746
f 547//746 667//746 544//746
f 547//885 548//885 663//885
f 624//668 623//668 621//668
f 669//669 621//669 623//669
f 622//757 624//757 621//757
f 669//669 622//669 621//669
f 624//668 626//668 623//668
f 625//747 623//747 626//747
f 669//747 623//747 625//747
f 664//886 626//886 624//886
f 625//886 626//886 664//886
f 664//757 624//757 622//757
f 666//755 665//755 663//755
f 547//887 663//887 665//887
f 543//755 666//755 663//755
f 664//756 622//756 665//756
f 670//888 665//888 622//888
f 666//756 664//756 665//756
f 547//887 665//887 670//887
f 670//888 622//888 669//888
f 625//889 664//889 666//889
f 668//890 666//890 543//890
f 668//889 625//889 666//889
f 667//890 668//890 543//890
f 669//750 625//750 668//750
f 670//748 668//748 667//748
f 670//750 669//750 668//750
f 547//748 670//748 667//748
f 564//292 562//292 566//292
f 563//766 566//766 562//766
f 568//292 564//292 566//292
f 671//891 568//891 566//891
f 563//766 671//766 566//766
f 675//568 562//568 564//568
f 675//568 563//568 562//568
f 567//758 564//758 568//758
f 567//758 675//758 564//758
f 567//891 568//891 671//891
f 611//648 609//648 607//648
f 677//644 607//644 609//644
f 608//769 611//769 607//769
f 677//892 608//892 607//892
f 611//648 613//648 609//648
f 612//759 609//759 613//759
f 677//759 609//759 612//759
f 672//893 613//893 611//893
f 612//893 613//893 672//893
f 672//769 611//769 608//769
f 674//767 673//767 671//767
f 567//894 671//894 673//894
f 563//767 674//767 671//767
f 672//768 608//768 673//768
f 678//895 673//895 608//895
f 674//768 672//768 673//768
f 567//894 673//894 678//894
f 678//895 608//895 677//895
f 612//896 672//896 674//896
f 676//897 674//897 563//897
f 676//896 612//896 674//896
f 675//897 676//897 563//897
f 677//762 612//762 676//762
f 678//760 676//760 675//760
f 678//762 677//762 676//762
f 567//760 678//760 675//760
